<svg width="53" height="23" viewBox="0 0 53 23" fill="none" xmlns="http://www.w3.org/2000/svg">
<path d="M10.5906 3.52472C11.1297 2.87335 11.5115 1.98615 11.5115 1.08771C11.5115 0.964172 11.5003 0.840637 11.4778 0.739563C10.6019 0.773254 9.5462 1.32355 8.91729 2.06476C8.42315 2.62628 7.9627 3.52472 7.9627 4.42316C7.9627 4.55792 7.98516 4.69269 7.99639 4.73761C8.05254 4.74884 8.14239 4.76007 8.23223 4.76007C9.01836 4.76007 10.0066 4.23224 10.5906 3.52472ZM11.2083 4.95099C9.89434 4.95099 8.82745 5.74835 8.14239 5.74835C7.41241 5.74835 6.45782 4.99591 5.31231 4.99591C3.14483 4.99591 0.943657 6.79279 0.943657 10.1732C0.943657 12.2845 1.75225 14.5081 2.76299 15.9456C3.62774 17.1585 4.38018 18.158 5.46954 18.158C6.54766 18.158 7.01934 17.4393 8.35577 17.4393C9.71465 17.4393 10.0179 18.1356 11.2083 18.1356C12.3875 18.1356 13.1736 17.0574 13.9148 15.9905C14.7459 14.7664 15.094 13.576 15.1053 13.5198C15.0379 13.4974 12.7806 12.5765 12.7806 9.99347C12.7806 7.75861 14.555 6.75909 14.6561 6.68048C13.4881 4.99591 11.7024 4.95099 11.2083 4.95099ZM16.6673 18.0345H19.5647V12.6776H23.136C26.4265 12.6776 28.6502 10.4988 28.6502 7.26447V7.242C28.6502 3.9964 26.4265 1.82892 23.136 1.82892H16.6673V18.0345ZM22.4285 4.19855C24.5061 4.19855 25.719 5.31036 25.719 7.25323V7.2757C25.719 9.21857 24.5061 10.3416 22.4285 10.3416H19.5647V4.19855H22.4285ZM33.2331 18.2366C34.8503 18.2366 36.1531 17.5403 36.8269 16.3499H37.0178V18.0345H39.7805V9.64532C39.7805 7.05109 38.0061 5.52374 34.8503 5.52374C31.9304 5.52374 29.9538 6.89386 29.6843 8.96027L29.6731 9.06134H32.3122L32.3235 9.01642C32.6042 8.20782 33.4353 7.74738 34.7156 7.74738C36.2204 7.74738 37.0178 8.4212 37.0178 9.64532V10.701L33.862 10.8919C30.8747 11.0716 29.2014 12.3519 29.2014 14.5418V14.5643C29.2014 16.7991 30.8972 18.2366 33.2331 18.2366ZM31.9641 14.4295V14.407C31.9641 13.3963 32.6941 12.8235 34.2551 12.7225L37.0178 12.5428V13.5311C37.0178 14.991 35.7712 16.0916 34.0866 16.0916C32.8513 16.0916 31.9641 15.4739 31.9641 14.4295ZM42.8474 22.347C45.5651 22.347 46.9689 21.3699 48.0246 18.2928L52.4269 5.75958H49.4846L46.632 15.3504H46.4186L43.5549 5.75958H40.5002L44.8913 18.0457L44.7453 18.6072C44.4421 19.7191 43.757 20.1907 42.6115 20.1907C42.3195 20.1907 42.0051 20.1795 41.7805 20.157V22.3021C42.1174 22.3358 42.5104 22.347 42.8474 22.347Z" fill="white"/>
</svg>
