<svg width="50" height="52" viewBox="0 0 50 52" fill="none" xmlns="http://www.w3.org/2000/svg">
<path d="M22.8026 45.8787C10.2176 45.8787 0.0527344 35.7138 0.0527344 23.2498C0.0527344 10.7858 10.2176 0.5 22.8026 0.5C35.3876 0.5 45.5524 10.6648 45.5524 23.2498C45.5524 27.4852 44.3423 31.4785 42.4062 34.8668C42.2851 34.9878 42.1641 34.9878 42.1641 34.7458C41.3171 29.1793 37.9288 26.1541 33.0884 25.186C32.6044 25.065 32.6044 24.823 33.2094 24.823C34.7825 24.702 36.8397 24.702 38.0498 24.944C38.1708 24.3389 38.1708 23.7339 38.1708 23.2498C38.1708 15.0212 31.3943 8.24463 23.1656 8.24463C14.9369 8.24463 8.16039 15.0212 8.16039 23.2498C8.16039 31.4785 14.9369 38.2551 23.1656 38.2551H23.8917C23.6496 36.9239 23.5286 35.5928 23.6496 34.1407C23.6496 33.1726 23.8917 33.0516 24.2547 33.7777C26.3119 37.408 29.3371 40.5542 35.1456 41.8853C39.865 42.9744 44.5843 44.1845 49.7878 50.598C50.2718 51.2031 49.5457 51.8081 49.0617 51.3241C43.8583 46.7257 39.1389 45.1526 34.7825 45.1526C29.3371 45.2736 26.0698 45.8787 22.8026 45.8787Z" fill="#F28A1A"/>
</svg>
