<svg width="17" height="19" viewBox="0 0 17 19" fill="none" xmlns="http://www.w3.org/2000/svg">
<path d="M6.84277 3.72754V9.45312H9.05176C10.1436 9.45312 10.9772 9.20345 11.5527 8.7041C12.1367 8.19629 12.4287 7.48958 12.4287 6.58398C12.4287 5.68685 12.141 4.98861 11.5654 4.48926C10.9899 3.98145 10.1605 3.72754 9.07715 3.72754H6.84277ZM11.8066 16.5498H6.84277V19H3.00879V16.5498H0.710938V14.1885H3.00879V12.3096H0.710938V9.50391H3.00879V0.680664H10.2197C12.0394 0.680664 13.5078 1.22656 14.625 2.31836C15.7507 3.41016 16.3135 4.81934 16.3135 6.5459C16.3135 8.24707 15.7295 9.64355 14.5615 10.7354C13.3936 11.8271 11.8786 12.373 10.0166 12.373H6.84277V14.1885H11.8066V16.5498Z" fill="#0D1C41"/>
</svg>
