<svg width="24" height="16" viewBox="0 0 24 16" fill="none" xmlns="http://www.w3.org/2000/svg">
<g clip-path="url(#clip0_82_2465)">
<path d="M0 2C0 0.895431 0.895431 0 2 0H22C23.1046 0 24 0.895431 24 2V14C24 15.1046 23.1046 16 22 16H2C0.89543 16 0 15.1046 0 14V2Z" fill="#DCEFDC"/>
<path d="M19.9442 5.10281H16.0938C16.318 6.37384 17.5517 7.57011 18.8975 7.57011H21.9629C22.0003 7.45796 22.0003 7.27104 22.0003 7.15889C22.0003 6.03739 21.0657 5.10281 19.9442 5.10281Z" fill="url(#paint0_linear_82_2465)"/>
<path d="M16.4297 7.79439V10.8972H18.2988V9.25233H19.9437C20.8409 9.25233 21.626 8.61682 21.8876 7.79439H16.4297Z" fill="#4FAD50"/>
<path d="M9.84961 5.10281V10.8598H11.4945C11.4945 10.8598 11.9057 10.8598 12.13 10.4486C13.2515 8.243 13.5879 7.57011 13.5879 7.57011H13.8122V10.8598H15.6814V5.10281H14.0365C14.0365 5.10281 13.6253 5.1402 13.401 5.51403C12.4664 7.42057 11.9431 8.39253 11.9431 8.39253H11.7188V5.10281H9.84961Z" fill="#4FAD50"/>
<path d="M2 10.8972V5.1402H3.86916C3.86916 5.1402 4.39253 5.1402 4.69159 5.96263C5.43926 8.13085 5.51403 8.42992 5.51403 8.42992C5.51403 8.42992 5.66355 7.90655 6.33645 5.96263C6.63552 5.1402 7.15889 5.1402 7.15889 5.1402H9.02804V10.8972H7.15889V7.79441H6.93458L5.88786 10.8972H5.06543L4.0187 7.79441H3.7944V10.8972H2Z" fill="#4FAD50"/>
</g>
<defs>
<linearGradient id="paint0_linear_82_2465" x1="16.0871" y1="6.35414" x2="21.9871" y2="6.35414" gradientUnits="userSpaceOnUse">
<stop stop-color="#27B1E6"/>
<stop offset="1" stop-color="#148ACA"/>
</linearGradient>
<clipPath id="clip0_82_2465">
<rect width="24" height="16" fill="white"/>
</clipPath>
</defs>
</svg>
