<svg width="558" height="558" viewBox="0 0 558 558" fill="none" xmlns="http://www.w3.org/2000/svg">
<path opacity="0.9" d="M150.872 385.891C228.546 419.806 244.828 364.553 303.34 328.35C349.978 299.479 397.441 307.391 432.874 258.622C463.754 216.125 470.584 141.821 440.028 112.794C402.809 77.417 341.306 81.8586 297.369 120.606C263.889 150.091 243.645 215.399 200.69 224.394C151.263 234.762 123.363 187.131 77.0376 216.214C-8.32525 269.748 136.878 379.775 150.872 385.891Z" fill="#4A607A"/>
<path opacity="0.1" d="M279 477.157C398.504 477.157 495.381 471.501 495.381 464.524C495.381 457.547 398.504 451.891 279 451.891C159.496 451.891 62.6187 457.547 62.6187 464.524C62.6187 471.501 159.496 477.157 279 477.157Z" fill="#0D1C41"/>
<path opacity="0.6" d="M62.5129 175.254H228.052L230.97 224.424L230.971 224.429C231.321 229.486 233.561 234.226 237.246 237.707C239.428 239.769 242.023 241.3 244.829 242.219H84.3167C79.5 242.159 74.8822 240.289 71.3806 236.981C67.8789 233.672 65.7499 229.168 65.4165 224.362C65.4164 224.361 65.4164 224.36 65.4163 224.36L62.5129 175.254Z" fill="white" stroke="black"/>
<path d="M263.208 141.732H114.948C112.584 141.704 110.241 142.167 108.065 143.092C105.89 144.017 103.931 145.384 102.311 147.105C100.691 148.827 99.4464 150.866 98.6556 153.093C97.8648 155.321 97.5451 157.688 97.7167 160.046L101.556 224.405C101.731 226.763 101.414 229.132 100.624 231.361C99.8344 233.59 98.5899 235.631 96.9695 237.353C95.349 239.075 93.3881 240.442 91.2113 241.365C89.0344 242.289 86.6892 242.75 84.3247 242.719H250.865C253.23 242.75 255.575 242.289 257.752 241.365C259.929 240.442 261.89 239.075 263.51 237.353C265.131 235.631 266.375 233.59 267.165 231.361C267.954 229.132 268.272 226.763 268.096 224.405L268.509 231.369L264.291 160.09C264.109 157.728 264.422 155.355 265.208 153.12C265.995 150.886 267.238 148.84 268.86 147.113C270.481 145.386 272.444 144.015 274.624 143.089C276.804 142.162 279.153 141.7 281.522 141.732H263.208Z" fill="#0D1C41"/>
<path d="M314.695 401.372H149.156L134.843 160.016L134.843 160.016L134.843 160.011C134.495 154.954 132.255 150.213 128.569 146.733C126.391 144.676 123.801 143.149 121.001 142.232H281.519C286.341 142.293 290.963 144.167 294.465 147.482C297.968 150.798 300.094 155.31 300.419 160.122C300.419 160.123 300.419 160.123 300.419 160.124L314.695 401.372Z" fill="white" stroke="black"/>
<path d="M190.456 210.567H159.588L157.724 179.676H188.604L190.456 210.567ZM162.936 206.929H186.562L185.256 183.303H161.585L162.936 206.929Z" fill="#0D1C41"/>
<path d="M194.764 283.23H163.862L162.032 252.328H192.934L194.764 283.23ZM167.277 279.592H190.903L189.508 255.966H165.882L167.277 279.592Z" fill="#0D1C41"/>
<path d="M199.061 355.892H168.159L166.284 324.99H197.186L199.061 355.892ZM171.585 352.254H195.21L193.804 328.629H170.179L171.585 352.254Z" fill="#0D1C41"/>
<path d="M276.589 179.665H205.545V183.303H276.589V179.665Z" fill="#0D1C41"/>
<path d="M269.046 193.302H206.349V196.941H269.046V193.302Z" fill="#0D1C41"/>
<path d="M278.196 206.929H207.151V210.567H278.196V206.929Z" fill="#0D1C41"/>
<path d="M280.885 252.328H209.841V255.966H280.885V252.328Z" fill="#0D1C41"/>
<path d="M252.349 265.965H210.645V269.603H252.349V265.965Z" fill="#0D1C41"/>
<path d="M232.987 279.591H211.459V283.23H232.987V279.591Z" fill="#0D1C41"/>
<path d="M282.504 279.591H246.981V283.23H282.504V279.591Z" fill="#0D1C41"/>
<path d="M285.182 324.99H214.138V328.629H285.182V324.99Z" fill="#0D1C41"/>
<path d="M285.997 338.628H214.952V342.266H285.997V338.628Z" fill="#0D1C41"/>
<path d="M255.05 352.254H215.756V355.892H255.05V352.254Z" fill="#0D1C41"/>
<path d="M177.031 203.291C176.259 203.291 175.516 202.996 174.955 202.465L167.4 195.3C167.111 195.027 166.879 194.699 166.717 194.336C166.555 193.973 166.466 193.582 166.455 193.184C166.433 192.382 166.731 191.603 167.283 191.02C167.835 190.437 168.596 190.097 169.398 190.075C170.201 190.053 170.979 190.351 171.562 190.903L176.942 195.981L189.05 183.113C189.601 182.529 190.361 182.187 191.163 182.163C191.966 182.139 192.745 182.434 193.33 182.985C193.915 183.535 194.257 184.296 194.281 185.098C194.305 185.901 194.009 186.68 193.458 187.265L179.274 202.342C179.002 202.634 178.674 202.868 178.31 203.031C177.946 203.194 177.553 203.282 177.154 203.291H177.031Z" fill="#A89060"/>
<path d="M181.339 275.953C180.566 275.956 179.822 275.661 179.263 275.127L171.674 267.963C171.375 267.693 171.133 267.366 170.962 267.001C170.791 266.636 170.695 266.241 170.679 265.839C170.663 265.436 170.728 265.034 170.869 264.657C171.01 264.28 171.226 263.935 171.502 263.642C171.779 263.349 172.111 263.114 172.479 262.952C172.848 262.789 173.245 262.701 173.648 262.694C174.051 262.687 174.451 262.761 174.825 262.91C175.199 263.06 175.539 263.283 175.826 263.566L181.216 268.644L193.313 255.776C193.864 255.191 194.624 254.85 195.427 254.825C196.229 254.801 197.009 255.097 197.593 255.648C198.178 256.198 198.52 256.958 198.544 257.761C198.568 258.564 198.272 259.343 197.721 259.928L183.537 275.005C183.267 275.296 182.941 275.53 182.579 275.693C182.216 275.856 181.825 275.944 181.428 275.953H181.339Z" fill="#A89060"/>
<path d="M185.635 348.627C184.861 348.626 184.117 348.326 183.559 347.79L175.97 340.626C175.671 340.356 175.43 340.029 175.259 339.664C175.088 339.299 174.992 338.904 174.976 338.501C174.96 338.099 175.024 337.697 175.165 337.32C175.307 336.943 175.522 336.598 175.798 336.305C176.075 336.012 176.407 335.777 176.776 335.615C177.144 335.452 177.541 335.364 177.944 335.357C178.347 335.35 178.747 335.424 179.121 335.573C179.495 335.723 179.835 335.946 180.122 336.229L185.512 341.306L197.621 328.439C198.188 327.952 198.915 327.692 199.662 327.709C200.41 327.727 201.124 328.021 201.667 328.534C202.211 329.047 202.545 329.743 202.606 330.488C202.667 331.233 202.449 331.974 201.996 332.568L187.811 347.645C187.538 347.936 187.21 348.169 186.846 348.332C186.482 348.495 186.089 348.584 185.691 348.594L185.635 348.627Z" fill="#A89060"/>
<path d="M345.689 177.582L324.015 182.91L388.697 446.053L410.372 440.725L345.689 177.582Z" fill="white"/>
<path d="M389.064 445.448L324.62 183.276L345.323 178.187L409.767 440.359L389.064 445.448Z" stroke="#0D1C41" stroke-opacity="0.7"/>
<path opacity="0.2" d="M345.678 177.58L339.078 179.202L403.761 442.345L410.361 440.723L345.678 177.58Z" fill="black"/>
<path d="M408.734 444.639L391.936 448.768C390.59 449.099 389.766 450.459 390.097 451.806L392.911 463.25C393.242 464.597 394.602 465.42 395.948 465.089L412.746 460.96C414.093 460.629 414.916 459.269 414.585 457.922L411.772 446.478C411.441 445.132 410.081 444.308 408.734 444.639Z" fill="#407BFF"/>
<path opacity="0.7" d="M408.734 444.639L391.936 448.768C390.59 449.099 389.766 450.459 390.097 451.806L392.911 463.25C393.242 464.597 394.602 465.42 395.948 465.089L412.746 460.96C414.093 460.629 414.916 459.269 414.585 457.922L411.772 446.478C411.441 445.132 410.081 444.308 408.734 444.639Z" fill="#A89060"/>
<path d="M408.865 436.938L388.263 442.002C387.018 442.308 386.257 443.566 386.563 444.811L388.406 452.31C388.712 453.555 389.97 454.316 391.215 454.01L411.816 448.946C413.061 448.64 413.823 447.383 413.517 446.138L411.673 438.638C411.367 437.393 410.11 436.632 408.865 436.938Z" fill="#E0E0E0"/>
<path d="M345.692 177.556L324.02 182.89L326.564 164.755L328.193 153.126L335.034 162.668L345.692 177.556Z" fill="#E0E0E0"/>
<path d="M335.035 162.668L326.564 164.755L328.194 153.126L335.035 162.668Z" fill="#A89060"/>
<path d="M401.671 160.347C401.56 167.043 400.265 179.665 403.792 183.783C395.685 186.449 388.418 191.189 382.71 197.532C377.878 189.631 384.183 185.379 384.183 185.379C391.136 183.147 390.712 177.913 389.25 173.103L401.671 160.347Z" fill="#FFB573"/>
<path d="M380.657 190.713C382.499 183.872 377.309 182.901 385.958 179.553C392.721 176.875 405.499 176.495 408.501 178.649C410.164 179.855 407.877 184.073 407.877 184.073L380.657 190.713Z" fill="#263238"/>
<path d="M418.143 189.24C418.646 190.044 419.003 190.657 419.404 191.36C419.806 192.064 420.141 192.711 420.52 193.392C421.235 194.753 421.904 196.115 422.552 197.498C423.846 200.255 424.973 203.078 426.011 205.935C428.096 211.722 429.591 217.705 430.475 223.791L430.765 226.09C430.821 226.414 430.866 226.994 430.899 227.497C430.933 227.999 430.899 228.456 430.899 228.903C430.874 230.549 430.751 232.192 430.531 233.824C430.14 236.904 429.549 239.817 428.902 242.752C427.584 248.477 425.918 254.116 423.913 259.637C423.647 260.386 423.117 261.012 422.423 261.399C421.728 261.785 420.917 261.905 420.14 261.737C419.364 261.569 418.675 261.124 418.203 260.485C417.73 259.846 417.507 259.056 417.574 258.265C418.021 252.595 418.545 246.881 418.958 241.301C419.159 238.511 419.315 235.721 419.36 233.088C419.36 231.782 419.36 230.487 419.237 229.405L419.137 228.657L418.992 227.932L418.579 225.99C417.387 220.76 415.782 215.633 413.78 210.656C412.775 208.156 411.693 205.679 410.555 203.235C409.989 202.007 409.398 200.802 408.78 199.619L407.843 197.856L406.961 196.237L406.805 195.947C405.992 194.449 405.795 192.692 406.256 191.051C406.717 189.409 407.8 188.013 409.275 187.157C410.749 186.301 412.499 186.054 414.153 186.468C415.807 186.882 417.235 187.924 418.132 189.374L418.143 189.24Z" fill="#FFB573"/>
<path d="M415.152 261.892L416.079 260.352L418.69 255.955L423.478 258.666C424.471 263.13 421.435 267.081 421.435 267.081L420.085 268.197C419.625 268.597 419.03 268.808 418.42 268.785C417.811 268.762 417.233 268.508 416.804 268.074L415.766 267.115C415.113 266.427 414.7 265.547 414.59 264.605C414.479 263.664 414.676 262.712 415.152 261.892Z" fill="#FFB573"/>
<path d="M351.541 259.615L350.771 256.825C350.59 256.169 350.159 255.609 349.571 255.267C348.983 254.925 348.283 254.827 347.624 254.995L344.276 255.854L342.211 256.367C341.125 256.651 340.161 257.28 339.464 258.16C338.768 259.04 338.376 260.122 338.35 261.244V262.907C338.345 263.632 338.615 264.331 339.106 264.863C339.597 265.396 340.272 265.722 340.995 265.775L343.059 265.976C346.156 265.483 348.996 263.957 351.117 261.646C351.347 261.367 351.505 261.037 351.579 260.683C351.653 260.329 351.64 259.963 351.541 259.615Z" fill="#FFB573"/>
<path d="M412.564 184.33C418.423 186.93 423.791 193.124 428.188 204.585C426.782 209.306 412.262 217.04 412.262 217.04C412.262 217.04 394.15 178.638 412.564 184.33Z" fill="#407BFF"/>
<path d="M364.095 199.005C364.151 203.257 357.109 213.111 365.211 218.825C365.914 227.43 366.863 235.9 368.704 250.017H412.039C407.921 234.393 411.481 223.903 418.087 196.449C418.465 194.974 418.519 193.435 418.246 191.937C417.973 190.439 417.379 189.017 416.506 187.77C415.633 186.523 414.5 185.479 413.186 184.709C411.872 183.94 410.407 183.464 408.892 183.314C407.162 183.147 405.331 183.002 403.468 182.901C396.914 182.432 390.335 182.432 383.782 182.901C381.65 183.091 379.451 183.359 377.342 183.649C373.656 184.186 370.287 186.035 367.854 188.855C365.42 191.676 364.086 195.28 364.095 199.005Z" fill="#A89060"/>
<path d="M378.447 194.865C378.548 198.057 378.447 201.114 378.447 204.239C378.447 207.364 378.246 210.455 378.045 213.58C377.7 219.915 376.954 226.222 375.813 232.463C375.679 233.255 375.467 234.081 375.278 234.885C375.088 235.688 374.921 236.492 374.664 237.34L374.307 238.578L374.117 239.203C374.045 239.484 373.956 239.76 373.849 240.029C373.382 241.231 372.743 242.359 371.952 243.377C370.863 244.79 369.674 246.121 368.392 247.361C367.22 248.533 366.026 249.593 364.821 250.709C360.075 254.798 355.031 258.528 349.732 261.869C349.067 262.287 348.274 262.453 347.497 262.335C346.72 262.218 346.011 261.826 345.499 261.23C344.987 260.634 344.705 259.874 344.706 259.088C344.707 258.302 344.99 257.543 345.503 256.948C349.487 252.406 353.594 247.897 357.422 243.433C358.359 242.317 359.274 241.201 360.145 240.085C360.962 239.094 361.708 238.046 362.377 236.949C362.645 236.536 362.812 236.034 362.667 236.313C362.522 236.592 362.667 236.168 362.667 236.045L362.767 235.554L362.979 234.583C363.136 233.958 363.225 233.255 363.337 232.574C363.448 231.894 363.582 231.213 363.649 230.499C364.408 224.863 364.765 218.926 364.977 212.989C365.189 207.051 365.323 201.003 365.356 195.133C365.347 194.272 365.507 193.419 365.827 192.62C366.148 191.822 366.622 191.094 367.224 190.479C368.439 189.237 370.097 188.528 371.835 188.509C373.572 188.49 375.246 189.162 376.488 190.377C377.73 191.591 378.439 193.25 378.458 194.988L378.447 194.865Z" fill="#FFB573"/>
<path d="M373.67 184.642C368.325 187.298 363.024 192.454 360.825 204.261C362.22 208.937 381.326 217.944 381.326 217.944C381.326 217.944 391.962 177.812 373.67 184.642Z" fill="#A89060"/>
<path d="M374.843 156.084C374.988 156.921 374.653 157.702 374.095 157.802C373.537 157.903 372.979 157.322 372.834 156.474C372.689 155.626 373.035 154.856 373.582 154.756C374.129 154.655 374.709 155.236 374.843 156.084Z" fill="#263238"/>
<path d="M373.86 154.745L371.729 154.566C371.729 154.566 373.012 155.939 373.86 154.745Z" fill="#263238"/>
<path d="M374.641 157.021C374.203 159.102 373.486 161.114 372.51 163.003C372.999 163.231 373.532 163.35 374.072 163.35C374.612 163.35 375.145 163.231 375.635 163.003L374.641 157.021Z" fill="#ED893E"/>
<path d="M372.633 150.325C372.505 150.324 372.382 150.277 372.287 150.191C372.24 150.145 372.202 150.089 372.176 150.028C372.151 149.966 372.138 149.901 372.138 149.834C372.138 149.768 372.151 149.702 372.176 149.641C372.202 149.579 372.24 149.524 372.287 149.477C372.832 148.877 373.512 148.414 374.27 148.127C375.029 147.84 375.844 147.736 376.65 147.825C376.714 147.837 376.775 147.862 376.83 147.898C376.884 147.934 376.931 147.98 376.967 148.034C377.003 148.088 377.029 148.148 377.041 148.212C377.054 148.276 377.054 148.342 377.041 148.406C377.014 148.539 376.936 148.657 376.823 148.734C376.711 148.811 376.573 148.842 376.438 148.819C375.8 148.761 375.157 148.852 374.56 149.087C373.963 149.321 373.429 149.692 373.001 150.169C372.904 150.268 372.771 150.324 372.633 150.325Z" fill="#263238"/>
<path d="M402.463 147.77C403.579 158.26 404.249 162.679 399.975 168.974C393.535 178.515 380.59 177.902 376.427 168.047C372.677 159.119 371.506 143.495 380.835 137.402C382.842 136.033 385.174 135.216 387.596 135.032C390.018 134.848 392.446 135.304 394.637 136.354C396.827 137.404 398.703 139.011 400.077 141.015C401.451 143.018 402.274 145.348 402.463 147.77Z" fill="#FFB573"/>
<path d="M383.38 155.436C376.684 154.253 375.065 146.564 377.543 143.216C366.26 143.718 358.66 131.096 370.847 123.898C383.034 116.7 393.792 127.849 392.921 132.056C407.932 130.695 416.726 143.049 408.545 152.234C419.337 153.986 435.497 166.15 423.634 178.928C439.671 181.283 441.412 231.503 397.754 222.575C351.73 213.156 391.716 173.103 391.716 173.103C391.716 173.103 380.054 169.822 383.38 155.436Z" fill="#263238"/>
<path d="M426.133 182.198L425.185 181.618C429.236 175.033 429.906 169.041 427.171 163.762C423.656 157.066 415.13 153.115 408.512 152.736L408.579 151.62C415.498 152.01 424.459 156.084 428.165 163.237C431.044 168.817 430.341 175.357 426.133 182.198Z" fill="#263238"/>
<path d="M413.445 153.361C417.295 152.725 415.476 146.441 412.641 144.779C409.806 143.116 396.225 145.817 397.72 150.147C399.216 154.477 408.277 154.22 413.445 153.361Z" fill="white"/>
<path d="M414.137 151.776C417.976 151.039 416.436 145.95 413.556 144.355C410.677 142.759 398.814 143.942 400.432 148.216C402.05 152.49 409.003 152.792 414.137 151.776Z" fill="#A89060"/>
<path d="M373.917 144.488C371.346 144.454 368.86 143.562 366.852 141.955C363.649 139.466 361.886 135.739 362.388 132.458C362.69 130.371 363.995 127.503 368.549 125.684L368.962 126.722C365.748 128.005 363.861 130.07 363.493 132.614C363.091 135.516 364.687 138.83 367.578 141.074C368.919 142.192 370.534 142.932 372.256 143.218C373.978 143.505 375.746 143.327 377.376 142.703L377.8 143.741C376.568 144.245 375.248 144.499 373.917 144.488Z" fill="#263238"/>
<path d="M386.025 156.664C385.522 159.409 385.366 160.581 383.938 161.865C383.532 162.319 382.998 162.64 382.407 162.785C381.815 162.931 381.193 162.895 380.623 162.681C380.053 162.468 379.56 162.087 379.209 161.589C378.859 161.091 378.667 160.498 378.659 159.889C378.436 157.367 379.295 153.305 381.851 152.457C384.406 151.609 386.527 153.93 386.025 156.664Z" fill="#FFB573"/>
<path d="M379.865 165.402L378.961 163.784C378.922 163.718 378.902 163.643 378.902 163.567C378.902 163.49 378.922 163.415 378.961 163.349L379.865 161.742C379.903 161.672 379.96 161.614 380.028 161.573C380.097 161.533 380.175 161.512 380.255 161.512C380.335 161.512 380.413 161.533 380.482 161.573C380.551 161.614 380.607 161.672 380.646 161.742L381.55 163.349C381.588 163.415 381.608 163.49 381.608 163.567C381.608 163.643 381.588 163.718 381.55 163.784L380.646 165.402C380.607 165.472 380.551 165.53 380.482 165.571C380.413 165.611 380.335 165.633 380.255 165.633C380.175 165.633 380.097 165.611 380.028 165.571C379.96 165.53 379.903 165.472 379.865 165.402Z" fill="white"/>
<path d="M368.727 249.984C368.727 249.984 367.198 305.94 365.156 342.746C362.991 376.527 360.212 455.529 360.212 455.529L368.749 455.975C368.749 455.975 387.632 389.495 386.84 349.33C409.003 293.151 401.035 251.669 401.035 251.669L368.727 249.984Z" fill="#FFB573"/>
<path d="M360.848 451.98C360.658 451.843 360.43 451.769 360.195 451.769C359.961 451.769 359.732 451.843 359.542 451.98C355.445 455.021 350.483 456.671 345.38 456.689C339.711 456.935 341.106 460.037 349.219 461.075C358.761 462.258 360.803 464.222 363.884 464.992C366.964 465.763 369.408 463.419 369.352 456.946C369.347 456.725 369.276 456.511 369.149 456.33C369.022 456.149 368.844 456.01 368.638 455.931C365.895 454.924 363.28 453.598 360.848 451.98Z" fill="#263238"/>
<path d="M380.055 249.984C380.055 249.984 395.679 316.207 404.729 347.076C414.249 379.44 421.793 453.297 421.737 455.741H429.125C429.125 455.741 438.667 395.879 426.893 347.043C425.777 267.807 412.117 250.04 412.117 250.04L380.055 249.984Z" fill="#FFB573"/>
<path d="M421.547 453.096C421.355 453.017 421.142 453.002 420.94 453.055C420.739 453.107 420.56 453.223 420.431 453.386C418.522 455.864 417.139 458.609 411.503 461.02C406.838 463.006 409.416 465.729 416.715 464.736C425.297 463.553 425.419 464.948 428.31 464.948C431.2 464.948 432.562 462.069 430.453 455.808C430.385 455.601 430.262 455.416 430.097 455.274C429.932 455.132 429.73 455.039 429.515 455.004C426.792 454.693 424.116 454.052 421.547 453.096Z" fill="#263238"/>
<path d="M368.727 249.984C368.727 249.984 361.361 299.021 362.399 366.048C385.7 365.915 408.854 362.343 431.111 355.446C431.111 355.446 431.446 268.599 412.061 250.017C400.868 247.004 368.983 249.002 368.727 249.984Z" fill="#263238"/>
<path opacity="0.2" d="M369.587 356.529C369.515 356.529 369.445 356.501 369.393 356.451C369.341 356.401 369.311 356.333 369.308 356.261C367.221 313.462 372.287 253.042 372.332 252.473C372.333 252.435 372.342 252.399 372.358 252.365C372.375 252.332 372.398 252.302 372.426 252.278C372.454 252.254 372.487 252.236 372.523 252.225C372.559 252.214 372.596 252.211 372.633 252.216C372.67 252.219 372.706 252.229 372.739 252.246C372.771 252.262 372.8 252.285 372.824 252.313C372.848 252.341 372.866 252.374 372.878 252.409C372.889 252.444 372.893 252.481 372.89 252.517C372.834 253.131 367.779 313.507 369.866 356.305C369.869 356.342 369.864 356.38 369.852 356.415C369.84 356.45 369.821 356.482 369.796 356.509C369.77 356.537 369.74 356.558 369.706 356.573C369.672 356.588 369.635 356.596 369.598 356.595L369.587 356.529Z" fill="white"/>
<path opacity="0.2" d="M398.747 313.73L405.097 280.094L407.653 288.14L398.747 313.73Z" fill="black"/>
</svg>
