<svg width="614" height="614" viewBox="0 0 614 614" fill="none" xmlns="http://www.w3.org/2000/svg">
<g filter="url(#filter0_dd_82_768)">
<path d="M91.8918 117.078C-25.6524 193.214 168.151 228.985 218.179 270.258C254.074 299.866 241.303 363.992 296.636 399.641C354.782 437.095 440.312 436.481 483.648 415.334C549.064 383.406 547.762 240.16 441.135 189.149C360.271 150.467 299.657 208.048 216.583 177.164C164.344 157.761 155.883 75.6327 91.8918 117.078Z" fill="#A89060"/>
<path opacity="0.9" d="M91.8917 117.078C-25.6524 193.214 0.472095 358.367 50.5008 399.64C86.3953 429.247 241.303 363.992 296.636 399.64C354.782 437.094 440.312 436.48 483.648 415.334C549.064 383.406 547.762 240.16 441.135 189.149C360.271 150.467 291 156.5 242.501 117.078C194.002 77.6551 155.883 75.6325 91.8917 117.078Z" fill="#A89060"/>
<path d="M306.999 525.044C438.497 525.044 545.096 518.82 545.096 511.143C545.096 503.465 438.497 497.242 306.999 497.242C175.502 497.242 68.9023 503.465 68.9023 511.143C68.9023 518.82 175.502 525.044 306.999 525.044Z" fill="#F5F5F5"/>
<path d="M193.545 303.856L192.415 303.377C193.303 301.428 193.903 299.36 194.196 297.237L195.424 297.372C195.116 299.614 194.483 301.798 193.545 303.856ZM193.066 289.808C191.924 287.256 190.147 285.039 187.904 283.369C185.662 281.699 183.03 280.631 180.258 280.266L180.454 279.038C183.428 279.434 186.25 280.584 188.653 282.379C191.057 284.173 192.96 286.553 194.183 289.292L193.066 289.808Z" fill="#DC0000"/>
<path d="M186.656 316.21L174.548 321.736L174.007 320.508C173.179 318.839 172.643 317.041 172.423 315.191C172.306 313.684 172.469 312.169 172.902 310.721C173.95 307.838 175.181 305.024 176.586 302.297C177.667 300.111 177.941 298.437 177.409 297.274C177.211 296.76 176.907 296.293 176.515 295.906C176.123 295.518 175.653 295.219 175.137 295.027C173.931 294.72 172.654 294.883 171.564 295.481C170.863 295.78 170.23 296.218 169.704 296.769C169.178 297.32 168.771 297.972 168.506 298.686C167.974 300.119 168.137 302.141 168.997 304.753L155.956 308.83C154.325 304.58 154.325 299.878 155.956 295.629C157.593 291.535 161.367 288.15 167.278 285.473C171.895 283.361 176.07 282.636 179.791 283.263C182.071 283.538 184.24 284.402 186.085 285.769C187.93 287.136 189.388 288.96 190.315 291.061C191.144 292.907 191.45 294.946 191.199 296.955C190.606 300.093 189.485 303.107 187.884 305.87C186.807 307.701 186.067 309.71 185.698 311.801C185.646 313.328 185.975 314.843 186.656 316.21ZM175.604 325.101L188.547 319.28L193.741 330.688L180.798 336.472L175.604 325.101Z" fill="#DC0000"/>
<path d="M156.742 343.508L150.602 351.859L149.816 351.208C148.619 350.377 147.569 349.352 146.709 348.175C146.057 347.193 145.595 346.098 145.346 344.945C144.95 342.586 144.716 340.202 144.646 337.81C144.548 335.907 144.094 334.667 143.296 334.126C142.96 333.842 142.566 333.634 142.142 333.517C141.718 333.401 141.273 333.378 140.84 333.451C139.9 333.697 139.091 334.295 138.58 335.121C138.214 335.589 137.948 336.127 137.798 336.701C137.648 337.275 137.618 337.875 137.708 338.461C138.135 340.031 139.062 341.42 140.348 342.415L132.98 350.164C130.252 347.889 128.456 344.689 127.933 341.175C127.483 337.786 128.768 334.041 131.789 329.939C133.663 327.128 136.342 324.949 139.477 323.688C141.134 323.004 142.942 322.764 144.721 322.992C146.5 323.22 148.189 323.909 149.62 324.99C150.89 325.933 151.876 327.207 152.469 328.674C153.257 331.049 153.639 333.54 153.599 336.042C153.556 337.712 153.814 339.376 154.36 340.954C154.928 341.991 155.747 342.87 156.742 343.508ZM152.604 353.774L159.186 344.835L167.07 350.643L160.488 359.583L152.604 353.774Z" fill="#DC0000"/>
<path d="M287.462 506.722C286.449 506.723 285.454 506.445 284.588 505.919C283.721 505.392 283.017 504.638 282.55 503.738C277.638 494.209 271.412 483.022 260.262 470.913C259.62 470.219 259.169 469.369 258.954 468.448C258.739 467.526 258.766 466.565 259.034 465.658C263.172 451.278 269.681 431.617 269.742 431.421C269.95 430.711 270.299 430.049 270.768 429.477C271.237 428.904 271.817 428.432 272.472 428.088C273.128 427.744 273.846 427.535 274.583 427.475C275.321 427.415 276.064 427.503 276.766 427.736C277.469 427.968 278.118 428.34 278.674 428.829C279.23 429.317 279.682 429.913 280.002 430.58C280.323 431.247 280.507 431.972 280.541 432.711C280.576 433.451 280.462 434.19 280.205 434.884C280.143 435.068 274.531 452.002 270.467 465.768C279.132 475.762 286.486 486.822 292.35 498.678C292.781 499.52 292.988 500.459 292.953 501.404C292.917 502.349 292.639 503.269 292.147 504.076C291.654 504.883 290.962 505.55 290.137 506.013C289.313 506.477 288.383 506.721 287.438 506.722H287.462Z" fill="#DDD0A4"/>
<path d="M296.634 511.143H253.912L276.556 498.298L295.529 499.035L296.634 511.143Z" fill="#0D1C41"/>
<path d="M292.557 459.386C312.003 453.307 323.681 435.313 318.643 419.195C313.604 403.076 293.756 394.938 274.31 401.017C254.865 407.096 243.186 425.09 248.225 441.208C253.264 457.326 273.112 465.465 292.557 459.386Z" fill="#0D1C41"/>
<path d="M186.226 410.152C184.955 410.147 183.724 409.703 182.743 408.894C181.761 408.086 181.089 406.963 180.841 405.716C180.592 404.469 180.782 403.175 181.379 402.052C181.975 400.929 182.942 400.046 184.114 399.554C185.068 399.155 185.906 398.522 186.55 397.713C187.194 396.903 187.624 395.944 187.798 394.925C187.908 393.726 188.409 392.596 189.223 391.708C190.037 390.821 191.12 390.225 192.305 390.013C193.672 389.734 195.025 389.385 196.357 388.969C203.823 386.795 213.07 384.057 242.174 392.235C270.884 376.186 271.216 346.075 271.216 344.773C271.216 343.314 271.793 341.914 272.821 340.879C273.85 339.844 275.246 339.257 276.705 339.247C278.159 339.247 279.554 339.821 280.587 340.845C281.619 341.868 282.206 343.258 282.219 344.712C282.219 346.321 282.047 384.118 245.379 403.042C244.129 403.69 242.677 403.831 241.327 403.435C213.574 395.428 205.715 397.712 199.489 399.542L197.794 400.033C196.975 402.203 195.72 404.183 194.106 405.849C192.492 407.515 190.555 408.834 188.412 409.722C187.72 410.012 186.976 410.158 186.226 410.152Z" fill="#0D1C41"/>
<path d="M250.609 370.721C240.158 329.19 212.32 222.059 301.534 215.514C381.575 209.632 403.532 316.21 408.873 353.05C411.548 371.691 413 390.487 413.22 409.317C413.322 418.842 410.095 428.104 404.095 435.503C398.095 442.902 389.7 447.973 380.359 449.841C336.753 458.707 295.492 459.96 267.69 448.994C264.039 447.52 260.962 444.905 258.919 441.538C256.876 438.172 255.977 434.235 256.356 430.316C257.424 418.429 257.449 397.872 250.609 370.721Z" fill="#DDD0A4"/>
<path opacity="0.1" d="M408.925 353.075C403.89 318.298 384.094 221.679 314.786 215.539C310.832 215.138 306.849 215.916 303.337 217.776C299.825 219.636 296.942 222.493 295.052 225.989C291.958 231.981 292.056 239.239 296.685 246.423C311.913 270.16 348.347 352.031 342.846 396.644C340.39 416.943 327.606 433.152 338.683 455.969C352.684 454.743 366.601 452.693 380.361 449.829C389.702 447.961 398.097 442.889 404.097 435.491C410.097 428.092 413.325 418.83 413.223 409.305C413.017 390.488 411.581 371.704 408.925 353.075Z" fill="#0D1C41"/>
<path d="M396.938 409.894C396.793 409.894 396.655 409.838 396.551 409.737C396.448 409.636 396.389 409.498 396.385 409.354C396.176 390.548 394.728 371.776 392.05 353.161C378.788 261.478 343.09 215.121 288.776 219.124C288.703 219.129 288.63 219.12 288.561 219.097C288.492 219.073 288.429 219.037 288.374 218.989C288.319 218.941 288.274 218.883 288.242 218.817C288.21 218.752 288.191 218.681 288.186 218.609C288.179 218.463 288.229 218.32 288.325 218.21C288.421 218.1 288.556 218.032 288.702 218.019C343.655 213.967 379.783 260.655 393.082 353.001C395.758 371.666 397.21 390.487 397.429 409.341C397.429 409.488 397.371 409.629 397.267 409.732C397.164 409.836 397.023 409.894 396.876 409.894H396.938Z" fill="#0D1C41"/>
<path d="M396.104 462.311C415.549 456.232 427.228 438.238 422.189 422.12C417.151 406.002 397.303 397.863 377.857 403.942C358.412 410.021 346.733 428.015 351.772 444.133C356.811 460.251 376.659 468.39 396.104 462.311Z" fill="#0D1C41"/>
<path d="M399.467 506.722C398.453 506.724 397.458 506.447 396.592 505.921C395.725 505.394 395.02 504.639 394.555 503.738C389.643 494.209 383.417 483.022 372.255 470.913C371.618 470.215 371.17 469.366 370.955 468.446C370.74 467.525 370.765 466.566 371.027 465.658C375.177 451.278 381.674 431.617 381.747 431.421C381.975 430.735 382.335 430.1 382.808 429.553C383.28 429.006 383.856 428.558 384.502 428.233C385.148 427.909 385.852 427.715 386.572 427.662C387.293 427.61 388.018 427.7 388.704 427.927C389.39 428.155 390.025 428.515 390.572 428.988C391.119 429.46 391.567 430.036 391.891 430.682C392.216 431.328 392.41 432.032 392.462 432.753C392.515 433.474 392.425 434.198 392.198 434.884C392.136 435.068 386.536 452.002 382.472 465.768C391.138 475.759 398.488 486.819 404.342 498.678C404.773 499.52 404.981 500.459 404.945 501.404C404.91 502.349 404.632 503.269 404.139 504.076C403.646 504.883 402.955 505.55 402.13 506.013C401.306 506.477 400.376 506.721 399.43 506.722H399.467Z" fill="#DDD0A4"/>
<path d="M387.901 338.817C386.669 338.818 385.473 338.406 384.502 337.648C383.532 336.889 382.843 335.828 382.547 334.632C382.25 333.437 382.362 332.176 382.865 331.052C383.368 329.928 384.233 329.004 385.322 328.429C386.378 327.864 410.361 314.761 417.091 283.275C401.127 276.595 372.367 261.503 366.08 253.914C365.461 253.18 365.038 252.301 364.852 251.359C364.125 246.825 364.548 242.181 366.08 237.851L363.181 232.252C362.511 230.949 362.385 229.433 362.831 228.037C363.278 226.642 364.261 225.481 365.564 224.81C366.867 224.139 368.382 224.013 369.778 224.46C371.174 224.907 372.335 225.89 373.005 227.192L377.168 235.248C377.616 236.091 377.836 237.037 377.806 237.991C377.776 238.945 377.497 239.875 376.996 240.688C375.873 242.932 375.396 245.446 375.621 247.945C382.707 254.343 411.233 269.485 425.269 274.679C426.459 275.12 427.46 275.959 428.102 277.053C428.744 278.147 428.989 279.43 428.794 280.684C422.568 320.926 391.782 337.504 390.48 338.191C389.684 338.607 388.799 338.822 387.901 338.817Z" fill="#0D1C41"/>
<path d="M370.328 253.152C369.833 253.15 369.347 253.014 368.922 252.76C368.497 252.505 368.148 252.141 367.912 251.705C367.676 251.27 367.561 250.779 367.58 250.283C367.599 249.788 367.751 249.307 368.02 248.891C368.216 248.596 372.76 241.732 379.686 239.878C380.035 239.784 380.399 239.76 380.757 239.807C381.116 239.855 381.461 239.972 381.774 240.153C382.087 240.333 382.362 240.574 382.582 240.861C382.802 241.147 382.963 241.475 383.056 241.824C383.15 242.173 383.174 242.537 383.127 242.896C383.079 243.254 382.962 243.599 382.781 243.912C382.601 244.225 382.36 244.5 382.073 244.72C381.787 244.94 381.459 245.101 381.11 245.195C376.284 246.496 372.661 251.851 372.637 251.9C372.387 252.284 372.045 252.6 371.642 252.819C371.239 253.038 370.787 253.152 370.328 253.152Z" fill="#0D1C41"/>
<path d="M408.642 511.143H365.92L388.564 498.298L407.537 499.035L408.642 511.143Z" fill="#0D1C41"/>
<path d="M319.179 346.607C335.338 345.176 347.394 332.226 346.106 317.681C344.818 303.136 330.675 292.505 314.515 293.936C298.356 295.366 286.3 308.317 287.588 322.862C288.876 337.407 303.019 348.038 319.179 346.607Z" fill="white"/>
<path d="M313.689 337.02C317.975 335.8 319.647 328.486 317.425 320.685C315.203 312.884 309.927 307.55 305.642 308.77C301.357 309.991 299.684 317.305 301.906 325.106C304.129 332.907 309.404 338.241 313.689 337.02Z" fill="#0D1C41"/>
<path d="M283.422 325.248C301.965 322.866 338.682 312.391 344.736 308.167C339.972 294.217 317.72 282.28 297.925 289.01C279.984 295.064 283.422 325.248 283.422 325.248Z" fill="#0D1C41"/>
<path d="M287.02 334.213C310.045 329.841 339.971 322.497 348.53 317.794C348.002 332.8 343.618 348.015 320.139 353.161C300.933 357.348 287.02 334.213 287.02 334.213Z" fill="#0D1C41"/>
<path d="M268.053 348.637C276.379 343.128 277.476 330.121 270.505 319.583C263.533 309.046 251.131 304.969 242.806 310.478C234.48 315.987 233.382 328.994 240.354 339.532C247.326 350.069 259.727 354.146 268.053 348.637Z" fill="white"/>
<path d="M255.841 329.939C257.228 336.521 256.025 342.01 253.139 342.219C250.253 342.428 246.79 337.233 245.39 330.651C243.99 324.069 245.206 318.592 248.08 318.371C250.953 318.15 254.441 323.357 255.841 329.939Z" fill="#0D1C41"/>
<path d="M233.012 327.422C245.451 328.883 270.159 327.25 274.26 324.966C271.227 313.14 256.516 299.632 243.143 301.351C231.084 302.898 233.012 327.422 233.012 327.422Z" fill="#0D1C41"/>
<path d="M235.32 335.17C250.781 335.87 270.932 335.477 276.679 333.304C276.151 345.105 273.057 356.353 257.265 356.169C244.371 356.022 235.32 335.17 235.32 335.17Z" fill="#0D1C41"/>
<path d="M324.303 281.58C310.251 281.657 296.508 277.46 284.896 269.546C283.732 268.665 282.965 267.358 282.765 265.911C282.565 264.465 282.947 262.998 283.828 261.834C284.709 260.67 286.016 259.903 287.463 259.703C288.909 259.502 290.375 259.885 291.54 260.766C304.536 269.242 320.304 272.37 335.551 269.497C336.262 269.362 336.992 269.369 337.699 269.516C338.407 269.664 339.079 269.949 339.677 270.356C340.274 270.763 340.786 271.284 341.182 271.889C341.578 272.494 341.851 273.17 341.986 273.881C342.121 274.591 342.114 275.321 341.967 276.029C341.819 276.737 341.534 277.409 341.127 278.006C340.72 278.604 340.199 279.115 339.594 279.511C338.989 279.908 338.312 280.181 337.602 280.316C333.218 281.15 328.766 281.573 324.303 281.58Z" fill="#0D1C41"/>
<path d="M225.805 272.088C224.923 272.084 224.055 271.868 223.274 271.46C222.492 271.052 221.82 270.462 221.313 269.741C220.805 269.02 220.478 268.188 220.358 267.314C220.238 266.441 220.329 265.551 220.623 264.72C223.533 256.591 228.384 251.323 235.015 249.038C247.025 244.9 259.968 252.943 260.52 253.287C261.727 254.08 262.574 255.314 262.88 256.724C263.187 258.135 262.928 259.609 262.16 260.831C261.391 262.053 260.175 262.924 258.771 263.259C257.367 263.593 255.887 263.364 254.651 262.62C252.195 261.061 244.372 257.45 238.564 259.464C235.224 260.631 232.743 263.566 230.987 268.453C230.601 269.518 229.897 270.438 228.97 271.088C228.042 271.739 226.937 272.088 225.805 272.088Z" fill="#0D1C41"/>
<path d="M269.213 365.023C269.059 365.023 268.906 364.998 268.759 364.949C268.342 364.832 267.989 364.554 267.777 364.176C267.565 363.799 267.512 363.352 267.629 362.935C268.117 361.607 268.863 360.388 269.824 359.349C270.785 358.31 271.942 357.471 273.229 356.881C279.541 353.627 289.193 354.303 301.854 358.883C302.058 358.957 302.246 359.071 302.407 359.218C302.567 359.365 302.697 359.543 302.788 359.74C302.88 359.938 302.931 360.151 302.939 360.369C302.947 360.587 302.912 360.804 302.836 361.007C302.763 361.212 302.651 361.4 302.505 361.56C302.359 361.72 302.182 361.85 301.986 361.941C301.789 362.033 301.576 362.084 301.36 362.093C301.143 362.101 300.927 362.066 300.724 361.99C286.197 356.734 278.62 357.864 274.936 359.755C273.096 360.535 271.634 362.002 270.859 363.844C270.753 364.195 270.535 364.501 270.237 364.714C269.939 364.927 269.579 365.036 269.213 365.023Z" fill="#0D1C41"/>
<path d="M217.209 358.969C197.994 360.676 179.306 366.164 162.219 375.117C171.699 373.324 205.629 415.31 214.347 447.68C230.446 441.724 249.21 437.659 269.214 434.479C257.094 401.114 234.929 363.304 217.209 358.969Z" fill="#DDD0A4"/>
<path opacity="0.6" d="M217.209 358.969C197.994 360.676 179.306 366.164 162.219 375.117C171.699 373.324 205.629 415.31 214.347 447.68C230.446 441.724 249.21 437.659 269.214 434.479C257.094 401.114 234.929 363.304 217.209 358.969Z" fill="white"/>
<path d="M217.208 358.969C196.234 356.599 162.181 374.159 162.181 374.159C156.152 378.003 157.785 385.211 161.076 388.269C164.232 383.738 199.427 371.949 212.652 370.365C206.082 364.274 212.198 359.804 217.208 358.969Z" fill="#DDD0A4"/>
<path opacity="0.2" d="M217.208 358.969C196.234 356.599 162.181 374.159 162.181 374.159C156.152 378.003 157.785 385.211 161.076 388.269C164.232 383.738 199.427 371.949 212.652 370.365C206.082 364.274 212.198 359.804 217.208 358.969Z" fill="white"/>
<path d="M186.237 410.152C185.323 410.156 184.422 409.933 183.614 409.505C182.807 409.076 182.117 408.455 181.607 407.696C177.616 401.556 180.109 392.235 180.65 390.418C181.11 389.07 182.074 387.952 183.34 387.299C184.606 386.646 186.075 386.508 187.441 386.915C188.806 387.321 189.961 388.24 190.664 389.479C191.366 390.718 191.562 392.181 191.21 393.562C190.314 396.644 190.13 400.586 190.842 401.667C191.639 402.891 191.918 404.383 191.616 405.812C191.314 407.242 190.457 408.494 189.233 409.292C188.341 409.868 187.299 410.168 186.237 410.152Z" fill="#0D1C41"/>
<path d="M113.527 151.423C115.569 149.329 118.335 148.283 121.824 148.283C125.314 148.283 128.079 149.329 130.121 151.423C132.163 153.517 133.184 156.361 133.184 159.954C133.184 163.548 132.163 166.392 130.121 168.486C128.079 170.569 125.314 171.611 121.824 171.611C118.324 171.611 115.553 170.569 113.512 168.486C111.48 166.392 110.465 163.548 110.465 159.954C110.465 156.361 111.486 153.517 113.527 151.423ZM125.168 155.298C124.324 154.142 123.21 153.564 121.824 153.564C120.439 153.564 119.324 154.142 118.48 155.298C117.637 156.454 117.215 158.006 117.215 159.954C117.215 161.892 117.632 163.439 118.465 164.595C119.309 165.751 120.428 166.329 121.824 166.329C123.22 166.329 124.335 165.751 125.168 164.595C126.012 163.439 126.434 161.892 126.434 159.954C126.434 158.006 126.012 156.454 125.168 155.298ZM136.074 171.22V148.673H142.699V165.97H147.355V148.673H153.98V165.97H158.637V148.673H165.262V171.22H136.074ZM183.418 171.22V158.673H183.293L175.012 171.22H168.699V148.673H175.324V161.22H175.449L183.73 148.673H190.043V171.22H183.418ZM212.168 163.783C212.168 166.043 211.397 167.85 209.855 169.204C208.324 170.548 206.298 171.22 203.777 171.22H193.48V148.673H210.262V153.923H200.105V156.626H203.48C206.085 156.626 208.184 157.277 209.777 158.579C211.371 159.881 212.168 161.616 212.168 163.783ZM200.105 166.22H202.168C203.189 166.22 203.986 166.012 204.559 165.595C205.132 165.178 205.418 164.569 205.418 163.767C205.418 162.954 205.132 162.34 204.559 161.923C203.986 161.506 203.173 161.298 202.121 161.298H200.105V166.22ZM227.059 159.251L235.918 171.22H227.996L221.418 162.361H221.293V171.22H214.668V148.673H221.293V157.392H221.418L228.387 148.673H235.496L227.059 159.251ZM252.605 171.22L251.434 166.736H244.559L243.387 171.22H236.637L243.996 148.673H252.309L259.668 171.22H252.605ZM247.934 153.876L245.762 162.064H250.23L248.059 153.876H247.934Z" fill="#DC0000"/>
<path d="M279.559 171.22H268.105V148.673H279.184C281.486 148.673 283.277 149.173 284.559 150.173C285.85 151.163 286.496 152.538 286.496 154.298C286.496 155.579 286.064 156.673 285.199 157.579C284.335 158.475 283.241 159.006 281.918 159.173V159.298C283.46 159.34 284.777 159.876 285.871 160.908C286.965 161.928 287.512 163.178 287.512 164.658C287.512 166.637 286.788 168.225 285.34 169.423C283.892 170.621 281.965 171.22 279.559 171.22ZM274.73 153.22V157.704H277.293C278.137 157.704 278.809 157.501 279.309 157.095C279.809 156.689 280.059 156.142 280.059 155.454C280.059 154.756 279.819 154.21 279.34 153.814C278.871 153.418 278.22 153.22 277.387 153.22H274.73ZM274.73 166.673H277.559C278.59 166.673 279.382 166.449 279.934 166.001C280.496 165.543 280.777 164.892 280.777 164.048C280.777 163.246 280.496 162.621 279.934 162.173C279.371 161.725 278.595 161.501 277.605 161.501H274.73V166.673ZM298.621 151.423C300.663 149.329 303.428 148.283 306.918 148.283C310.408 148.283 313.173 149.329 315.215 151.423C317.257 153.517 318.277 156.361 318.277 159.954C318.277 163.548 317.257 166.392 315.215 168.486C313.173 170.569 310.408 171.611 306.918 171.611C303.418 171.611 300.647 170.569 298.605 168.486C296.574 166.392 295.559 163.548 295.559 159.954C295.559 156.361 296.579 153.517 298.621 151.423ZM310.262 155.298C309.418 154.142 308.303 153.564 306.918 153.564C305.533 153.564 304.418 154.142 303.574 155.298C302.73 156.454 302.309 158.006 302.309 159.954C302.309 161.892 302.725 163.439 303.559 164.595C304.402 165.751 305.522 166.329 306.918 166.329C308.314 166.329 309.428 165.751 310.262 164.595C311.105 163.439 311.527 161.892 311.527 159.954C311.527 158.006 311.105 156.454 310.262 155.298ZM342.199 171.22H335.574V153.923H327.793V171.22H321.168V148.673H342.199V171.22ZM366.355 171.22H359.73V153.923H354.824L354.449 161.845C354.376 163.314 354.189 164.616 353.887 165.751C353.585 166.887 353.142 167.892 352.559 168.767C351.975 169.642 351.204 170.314 350.246 170.783C349.288 171.241 348.152 171.47 346.84 171.47C345.892 171.47 345.126 171.387 344.543 171.22V165.486C345.074 165.579 345.491 165.626 345.793 165.626C346.283 165.626 346.699 165.522 347.043 165.314C347.387 165.095 347.652 164.783 347.84 164.376C348.027 163.96 348.163 163.517 348.246 163.048C348.329 162.569 348.387 161.996 348.418 161.329L348.949 148.673H366.355V171.22ZM384.668 171.22L383.496 166.736H376.621L375.449 171.22H368.699L376.059 148.673H384.371L391.73 171.22H384.668ZM379.996 153.876L377.824 162.064H382.293L380.121 153.876H379.996ZM403.59 171.22H396.965V153.939H391.027V148.673H409.527V153.939H403.59V171.22ZM428.012 165.954V171.22H412.105V148.673H428.012V153.939H418.73V157.579H427.434V162.329H418.73V165.954H428.012Z" fill="black"/>
</g>
<defs>
<filter id="filter0_dd_82_768" x="-7" y="-7" width="628" height="628" filterUnits="userSpaceOnUse" color-interpolation-filters="sRGB">
<feFlood flood-opacity="0" result="BackgroundImageFix"/>
<feColorMatrix in="SourceAlpha" type="matrix" values="0 0 0 0 0 0 0 0 0 0 0 0 0 0 0 0 0 0 127 0" result="hardAlpha"/>
<feOffset dx="-2" dy="-2"/>
<feGaussianBlur stdDeviation="2.5"/>
<feColorMatrix type="matrix" values="0 0 0 0 0.0791667 0 0 0 0 0.114 0 0 0 0 0.2375 0 0 0 0.15 0"/>
<feBlend mode="normal" in2="BackgroundImageFix" result="effect1_dropShadow_82_768"/>
<feColorMatrix in="SourceAlpha" type="matrix" values="0 0 0 0 0 0 0 0 0 0 0 0 0 0 0 0 0 0 127 0" result="hardAlpha"/>
<feOffset dx="2" dy="2"/>
<feGaussianBlur stdDeviation="2.5"/>
<feColorMatrix type="matrix" values="0 0 0 0 0.0784314 0 0 0 0 0.113725 0 0 0 0 0.239216 0 0 0 0.15 0"/>
<feBlend mode="normal" in2="effect1_dropShadow_82_768" result="effect2_dropShadow_82_768"/>
<feBlend mode="normal" in="SourceGraphic" in2="effect2_dropShadow_82_768" result="shape"/>
</filter>
</defs>
</svg>
