<svg width="63" height="24" viewBox="0 0 63 24" fill="none" xmlns="http://www.w3.org/2000/svg">
<path d="M29.4522 11.6725V18.7485H27.1914V1.27484H33.1849C34.7039 1.27484 35.9992 1.77777 37.0589 2.78361C38.1422 3.78946 38.6839 5.01753 38.6839 6.46782C38.6839 7.9532 38.1422 9.18127 37.0589 10.1754C36.0109 11.1696 34.7157 11.6608 33.1849 11.6608H29.4522V11.6725ZM29.4522 3.42689V9.52045H33.232C34.1269 9.52045 34.8805 9.21635 35.4693 8.61986C36.0698 8.02337 36.376 7.29823 36.376 6.47951C36.376 5.6725 36.0698 4.95905 35.4693 4.36256C34.8805 3.74268 34.1387 3.43858 33.232 3.43858H29.4522V3.42689Z" fill="white"/>
<path d="M44.5954 6.39761C46.2675 6.39761 47.5863 6.84206 48.5519 7.73094C49.5174 8.61983 50.0002 9.83621 50.0002 11.3801V18.7485H47.8454V17.0877H47.7512C46.8209 18.4561 45.5728 19.1344 44.0185 19.1344C42.6879 19.1344 41.581 18.7485 40.6861 17.9649C39.7912 17.1812 39.3438 16.2105 39.3438 15.0409C39.3438 13.8011 39.8148 12.8187 40.7568 12.0935C41.6988 11.3567 42.9587 10.9941 44.5248 10.9941C45.8671 10.9941 46.974 11.2397 47.8336 11.7309V11.2163C47.8336 10.4327 47.5274 9.77773 46.9034 9.22802C46.2793 8.67831 45.5492 8.40931 44.7132 8.40931C43.4533 8.40931 42.4524 8.93562 41.7223 9.99995L39.7323 8.76018C40.8274 7.18124 42.4524 6.39761 44.5954 6.39761ZM41.6752 15.076C41.6752 15.6608 41.9225 16.152 42.4288 16.538C42.9234 16.9239 43.5121 17.1227 44.1833 17.1227C45.1371 17.1227 45.9849 16.7719 46.7267 16.0701C47.4686 15.3684 47.8454 14.5497 47.8454 13.6023C47.1389 13.0526 46.1615 12.7719 44.9016 12.7719C43.9831 12.7719 43.2178 12.9941 42.6055 13.4268C41.9814 13.883 41.6752 14.4327 41.6752 15.076Z" fill="white"/>
<path d="M62.2939 6.78363L54.7578 24H52.4264L55.2288 17.9766L50.2598 6.78363H52.7208L56.3004 15.3684H56.3475L59.8329 6.78363H62.2939Z" fill="white"/>
<path d="M20.4599 10.2456C20.4599 9.5134 20.394 8.81281 20.2715 8.13913H10.7949V11.9988L16.2527 11.9999C16.0313 13.2842 15.3189 14.3789 14.2274 15.1087V17.6128H17.4761C19.3731 15.8689 20.4599 13.2912 20.4599 10.2456Z" fill="#4285F4"/>
<path d="M14.2275 15.1088C13.3232 15.7146 12.1586 16.069 10.7962 16.069C8.16452 16.069 5.93196 14.3076 5.13243 11.9333H1.78125V14.5158C3.44154 17.7883 6.85395 20.0339 10.7962 20.0339C13.521 20.0339 15.8101 19.1438 17.4762 17.6117L14.2275 15.1088Z" fill="#34A853"/>
<path d="M4.8173 10.0176C4.8173 9.3509 4.92917 8.70646 5.13288 8.10061V5.51816H1.78169C1.0952 6.87137 0.708984 8.39886 0.708984 10.0176C0.708984 11.6363 1.09638 13.1638 1.78169 14.517L5.13288 11.9345C4.92917 11.3287 4.8173 10.6842 4.8173 10.0176Z" fill="#FABB05"/>
<path d="M10.7962 3.96494C12.2834 3.96494 13.6152 4.47371 14.6667 5.46786L17.5457 2.61055C15.7971 0.993013 13.5175 3.05176e-05 10.7962 3.05176e-05C6.85513 3.05176e-05 3.44154 2.24564 1.78125 5.51815L5.13243 8.10061C5.93196 5.72634 8.16452 3.96494 10.7962 3.96494Z" fill="#E94235"/>
</svg>
