<svg width="632" height="632" viewBox="0 0 632 632" fill="none" xmlns="http://www.w3.org/2000/svg">
<g filter="url(#filter0_dd_82_405)">
<path d="M144.627 316.543C141.657 278.838 68.5219 216.991 94.257 185.593C126.236 146.586 247.808 201.962 302.198 191.306C360.519 179.93 461.98 73.7544 513.286 98.4403C574.185 127.816 491.014 269.927 499.546 329.183C504.337 362.49 562.746 436.32 536.366 461.903C494.528 502.351 366.03 436.497 303.259 440.984C254.507 444.473 141.404 508.355 107.643 479.056C72.7058 448.72 147.977 359.178 144.627 316.543Z" fill="#407BFF"/>
<path opacity="0.9" d="M144.627 316.543C141.657 278.838 68.5219 216.991 94.257 185.593C126.236 146.586 247.808 201.962 302.198 191.306C360.519 179.93 461.98 73.7544 513.286 98.4403C574.185 127.816 491.014 269.927 499.546 329.183C504.337 362.49 562.746 436.32 536.366 461.903C494.528 502.351 366.03 436.497 303.259 440.984C254.507 444.473 141.404 508.355 107.643 479.056C72.7058 448.72 147.977 359.178 144.627 316.543Z" fill="#DDD0A4"/>
<path opacity="0.4" d="M316.001 540.436C451.353 540.436 561.078 534.03 561.078 526.127C561.078 518.225 451.353 511.819 316.001 511.819C180.649 511.819 70.9238 518.225 70.9238 526.127C70.9238 534.03 180.649 540.436 316.001 540.436Z" fill="#939CA6"/>
<path opacity="0.9" d="M508.001 483.113C508.001 483.113 499.684 464.988 509.176 447.102C518.669 429.216 521.437 425.007 515.382 421.354C509.328 417.701 506.534 435.65 506.534 435.65C506.534 435.65 501.478 423.288 505.637 410.37C509.796 397.452 512.501 376.369 506.749 374.106C500.998 371.844 505.65 400.385 500.657 410.117C498.111 403.286 496.467 396.152 495.765 388.895C495.083 378.505 496.157 361.921 491.607 357.661C487.056 353.402 484.162 356.397 488.624 379.276C491.306 392.979 492.79 406.889 493.06 420.849C493.06 420.849 483.188 390.766 476.628 389.893C470.068 389.021 470.018 398.741 475.693 407.198C481.368 415.654 492.239 430.771 494.021 438.608C494.021 438.608 483.201 415.982 473.456 422.909C463.71 429.836 481.937 443.525 490.052 448.467C498.167 453.409 503.817 484.365 503.817 484.365L508.001 483.113Z" fill="#406C2B"/>
<path d="M501.427 490.558C501.427 490.558 509.53 472.294 499.822 454.56C490.115 436.826 487.296 432.655 493.313 428.9C499.329 425.146 502.312 443.07 502.312 443.07C502.312 443.07 507.267 430.645 502.906 417.79C498.546 404.935 495.638 383.889 501.364 381.551C507.09 379.213 502.78 407.817 507.887 417.461C510.352 410.599 511.908 403.442 512.513 396.176C513.082 385.773 511.805 369.202 516.305 364.879C520.805 360.556 523.75 363.463 519.553 386.455C517.038 400.19 515.722 414.117 515.622 428.079C515.622 428.079 525.127 397.857 531.738 396.883C538.349 395.91 538.45 405.643 532.888 414.175C527.327 422.707 516.583 438.001 514.876 445.775C514.876 445.775 525.431 423.023 535.252 429.785C545.073 436.548 527.023 450.515 518.972 455.571C510.92 460.627 505.599 491.696 505.599 491.696L501.427 490.558Z" fill="#61A73A"/>
<path d="M538.766 477.539H471.9L477.31 525.394H533.356L538.766 477.539Z" fill="#263238"/>
<path d="M331.535 203H287.408C285.709 203 284.079 203.675 282.877 204.877C281.675 206.079 281 207.709 281 209.408V252.309C281 254.008 281.675 255.638 282.877 256.84C284.079 258.042 285.709 258.717 287.408 258.717H301.527L292.022 271.635L308.454 258.717H331.522C333.222 258.717 334.852 258.042 336.054 256.84C337.255 255.638 337.931 254.008 337.931 252.309V209.408C337.931 207.711 337.257 206.083 336.058 204.881C334.859 203.68 333.232 203.003 331.535 203Z" fill="#A89060"/>
<path d="M326.189 234.792C328.369 225.558 322.65 216.307 313.417 214.127C304.184 211.948 294.932 217.667 292.753 226.9C290.573 236.133 296.292 245.385 305.525 247.564C314.758 249.743 324.01 244.025 326.189 234.792Z" fill="white"/>
<path d="M307.342 239.062C307.109 239.067 306.878 239.026 306.661 238.941C306.444 238.857 306.246 238.73 306.078 238.569L298.785 231.427C298.45 231.102 298.257 230.657 298.25 230.19C298.243 229.723 298.422 229.273 298.747 228.937C299.072 228.602 299.517 228.41 299.984 228.403C300.451 228.396 300.902 228.574 301.237 228.899L307.216 234.752L317.555 223.211C317.872 222.892 318.3 222.706 318.75 222.693C319.2 222.679 319.638 222.839 319.973 223.139C320.309 223.439 320.517 223.856 320.554 224.305C320.59 224.753 320.454 225.199 320.172 225.55L308.606 238.455C308.447 238.634 308.252 238.777 308.035 238.877C307.817 238.977 307.581 239.032 307.342 239.037V239.062Z" fill="#DDD0A4"/>
<path d="M117.425 496.651L153.841 493.061V451.994H168.276V493.048L204.843 496.651C206.596 496.821 208.222 497.637 209.404 498.941C210.587 500.245 211.241 501.943 211.239 503.704V509.177H111.029V503.704C111.027 501.943 111.682 500.245 112.864 498.941C114.047 497.637 115.673 496.821 117.425 496.651Z" fill="#263238"/>
<path opacity="0.1" d="M117.425 496.651L153.841 493.061V451.994H168.276V493.048L204.843 496.651C206.596 496.821 208.222 497.637 209.404 498.941C210.587 500.245 211.241 501.943 211.239 503.704V509.177H111.029V503.704C111.027 501.943 111.682 500.245 112.864 498.941C114.047 497.637 115.673 496.821 117.425 496.651Z" fill="white"/>
<path d="M207.385 525.394C212.6 525.394 216.827 521.167 216.827 515.952C216.827 510.737 212.6 506.51 207.385 506.51C202.171 506.51 197.943 510.737 197.943 515.952C197.943 521.167 202.171 525.394 207.385 525.394Z" fill="#263238"/>
<path d="M114.885 525.394C120.1 525.394 124.328 521.167 124.328 515.952C124.328 510.737 120.1 506.51 114.885 506.51C109.671 506.51 105.443 510.737 105.443 515.952C105.443 521.167 109.671 525.394 114.885 525.394Z" fill="#263238"/>
<path d="M165.534 462.991H156.534C155.149 462.991 153.822 462.441 152.843 461.462C151.864 460.483 151.314 459.155 151.314 457.77V417.398H170.754V457.77C170.754 459.155 170.204 460.483 169.225 461.462C168.246 462.441 166.918 462.991 165.534 462.991Z" fill="#263238"/>
<path opacity="0.2" d="M165.534 462.991H156.534C155.149 462.991 153.822 462.441 152.843 461.462C151.864 460.483 151.314 459.155 151.314 457.77V417.398H170.754V457.77C170.754 459.155 170.204 460.483 169.225 461.462C168.246 462.441 166.918 462.991 165.534 462.991Z" fill="white"/>
<path d="M110.65 338.272C110.65 338.272 121.47 405.744 142.831 417.411H121.116C121.116 417.411 99.6279 394.406 93.1562 338.272H110.65Z" fill="#263238"/>
<path opacity="0.1" d="M110.65 338.272C110.65 338.272 121.47 405.744 142.831 417.411H121.116C121.116 417.411 99.6279 394.406 93.1562 338.272H110.65Z" fill="white"/>
<path d="M120.08 407.867H204.667C206.343 407.867 207.95 408.533 209.136 409.719C210.321 410.904 210.987 412.511 210.987 414.187V422.644H113.76V414.187C113.76 412.511 114.426 410.904 115.611 409.719C116.796 408.533 118.404 407.867 120.08 407.867Z" fill="#0D1C41"/>
<path d="M212.454 415.249H112.207C110.803 415.249 109.666 416.387 109.666 417.79V420.09C109.666 421.494 110.803 422.631 112.207 422.631H212.454C213.858 422.631 214.995 421.494 214.995 420.09V417.79C214.995 416.387 213.858 415.249 212.454 415.249Z" fill="#263238"/>
<path opacity="0.6" d="M212.454 415.249H112.207C110.803 415.249 109.666 416.387 109.666 417.79V420.09C109.666 421.494 110.803 422.631 112.207 422.631H212.454C213.858 422.631 214.995 421.494 214.995 420.09V417.79C214.995 416.387 213.858 415.249 212.454 415.249Z" fill="white"/>
<path d="M90.5913 351.999H125.339C135.527 351.999 142.137 343.833 140.115 333.759L137.41 320.31C135.387 310.198 125.49 302.083 115.315 302.083H80.5678C70.38 302.083 63.7692 310.249 65.7916 320.31L68.4966 333.759C70.519 343.808 80.4035 351.999 90.5913 351.999Z" fill="#0D1C41"/>
<path d="M274.971 465.013L267.008 468.135L261.282 457.34L256.074 447.519L264.897 442.236L270.231 454.282L274.971 465.013Z" fill="#EBBC9B"/>
<path opacity="0.2" d="M270.231 454.282L261.282 457.34L256.074 447.519L264.897 442.236L270.231 454.282Z" fill="black"/>
<path d="M268.575 448.391L257.742 454.206C257.742 454.206 216.802 382.221 210.507 382.828C204.212 383.434 144.488 421.481 126.274 407.425C108.06 393.369 125.781 351.051 125.781 351.051C125.781 351.051 163.461 340.281 167.493 348.523C168.556 350.99 169.459 353.524 170.198 356.107C170.994 358.698 171.601 360.885 171.601 360.885C172.751 360.417 209.963 345.161 226.572 353.301C243.522 361.668 268.575 448.391 268.575 448.391Z" fill="#263238"/>
<path opacity="0.3" d="M268.575 448.391L257.742 454.206C257.742 454.206 216.802 382.221 210.507 382.828C204.212 383.434 144.488 421.481 126.274 407.425C108.06 393.369 125.781 351.051 125.781 351.051C125.781 351.051 163.461 340.281 167.493 348.523C168.556 350.99 169.459 353.524 170.198 356.107C170.994 358.698 171.601 360.885 171.601 360.885C172.751 360.417 209.963 345.161 226.572 353.301C243.522 361.668 268.575 448.391 268.575 448.391Z" fill="white"/>
<path d="M209.723 507.091L201.229 506.118L201.179 494.135L201.166 483.139L211.442 482.658L210.532 495.589L209.723 507.091Z" fill="#EBBC9B"/>
<path opacity="0.2" d="M210.508 495.855L201.154 494.363V483.252L211.431 482.709L210.508 495.855Z" fill="black"/>
<path d="M252.447 450.629L268.298 442.691L269.954 449.415L257.946 455.609L252.447 450.629Z" fill="#A89060"/>
<path d="M154.41 407.539C154.41 407.539 157.014 407.248 197.07 399.828C197.07 399.828 197.98 451.046 199.876 489.231L212.213 489.623C212.213 489.623 229.909 404.935 227.823 392.093C225.738 379.251 210.519 377.569 210.519 377.569C210.519 377.569 184.089 398.16 154.41 407.539Z" fill="#263238"/>
<path opacity="0.4" d="M154.41 407.539C154.41 407.539 157.014 407.248 197.07 399.828C197.07 399.828 197.98 451.046 199.876 489.231L212.213 489.623C212.213 489.623 229.909 404.935 227.823 392.093C225.738 379.251 210.519 377.569 210.519 377.569C210.519 377.569 184.089 398.16 154.41 407.539Z" fill="white"/>
<path opacity="0.3" d="M154.41 407.539C154.41 407.539 157.014 407.248 197.07 399.828C197.07 399.828 197.98 451.046 199.876 489.231L212.213 489.623C212.213 489.623 229.909 404.935 227.823 392.093C225.738 379.251 210.519 377.569 210.519 377.569C210.519 377.569 184.089 398.16 154.41 407.539Z" fill="black"/>
<path d="M197.613 485.818L214.437 485.427L212.137 492.353L198.485 492.48L197.613 485.818Z" fill="#A89060"/>
<path opacity="0.3" d="M171.652 360.91L149.822 368.683C149.822 368.683 161.299 360.114 170.249 356.132C171.045 358.723 171.652 360.91 171.652 360.91Z" fill="black"/>
<path d="M123.254 348.447L124.063 354.501L164.979 345.818L164.031 338.664L123.254 348.447Z" fill="#263238"/>
<path opacity="0.2" d="M123.254 348.447L124.063 354.501L164.979 345.818L164.031 338.664L123.254 348.447Z" fill="black"/>
<path d="M136.81 344.048L134.771 344.426L136.697 354.803L138.735 354.425L136.81 344.048Z" fill="#263238"/>
<path d="M154.652 341.421L145.725 343.433L147.25 350.203L156.178 348.191L154.652 341.421Z" fill="white"/>
<path d="M160.391 337.194L158.359 337.567L160.259 347.91L162.291 347.537L160.391 337.194Z" fill="#263238"/>
<path opacity="0.3" d="M136.81 344.048L134.771 344.426L136.697 354.803L138.735 354.425L136.81 344.048Z" fill="white"/>
<path opacity="0.3" d="M160.391 337.194L158.359 337.567L160.259 347.91L162.291 347.537L160.391 337.194Z" fill="white"/>
<path d="M290.796 479.144C289.467 478.737 288.074 478.578 286.688 478.677C286.688 478.677 281.543 476.528 275.312 466.302L270.003 466.997C269.109 467.132 268.279 467.537 267.623 468.159C266.968 468.78 266.519 469.588 266.337 470.473C266.299 470.725 266.299 470.98 266.337 471.232C266.566 472.515 266.878 473.782 267.273 475.024C268.634 479.132 270.242 483.155 272.088 487.07L272.948 486.716L270.205 479.056C269.295 476.44 272.468 478.652 274.149 481.18C275.83 483.708 278.219 486.16 283.894 484.011C290.492 481.432 293.109 480.067 290.796 479.144Z" fill="#263238"/>
<path d="M273.985 463.585C273.985 463.585 282.504 476.528 286.688 478.677C286.688 478.677 281.998 482.469 275.742 476.376C267.665 468.552 266.312 471.232 266.312 471.232C266.24 469.699 266.312 468.163 266.527 466.644C267.172 463.673 273.985 463.585 273.985 463.585Z" fill="#EBBC9B"/>
<path d="M222.464 522.158C221.254 521.46 219.926 520.989 218.546 520.768C218.546 520.768 214.059 517.469 210.456 506.068L205.135 505.486C204.232 505.401 203.325 505.598 202.539 506.051C201.753 506.504 201.128 507.19 200.749 508.014C200.636 508.241 200.559 508.484 200.521 508.735C200.433 510.027 200.433 511.323 200.521 512.615C200.864 516.929 201.472 521.218 202.342 525.457L203.264 525.318L202.443 517.203C202.177 514.448 204.743 517.355 205.78 520.212C206.816 523.068 208.548 526.014 214.564 525.268C221.592 524.32 224.449 523.612 222.464 522.158Z" fill="#263238"/>
<path d="M209.824 503.072C209.824 503.072 215.031 517.671 218.583 520.768C218.583 520.768 213.135 523.296 208.471 515.94C202.467 506.422 200.533 508.709 200.533 508.709C200.816 507.207 201.239 505.734 201.797 504.311C203.137 501.53 209.824 503.072 209.824 503.072Z" fill="#EBBC9B"/>
<path d="M114.341 245.216L103.648 247.365C103.23 247.717 102.737 247.967 102.206 248.097C101.675 248.226 101.122 248.231 100.589 248.111C97.4037 246.847 92.8153 243.143 92.2339 241.791C91.3744 239.882 92.2339 234.282 94.4838 233.271C96.7337 232.26 104.482 241.614 104.482 241.614L115.972 239.022L114.341 245.216Z" fill="#EBBC9B"/>
<path d="M148.066 280.76C148.066 280.76 147.093 246.113 143.086 244.635C139.079 243.156 108.958 247.289 108.958 247.289L108.225 239.376C108.225 239.376 143.275 233.979 150.063 237.177C156.851 240.375 159.088 292.009 157.849 301.957L148.066 280.76Z" fill="#A89060"/>
<path d="M109.475 248.047L107.377 239.351L110.385 238.264L112.294 248.313L109.475 248.047Z" fill="#4A607A"/>
<path opacity="0.7" d="M109.475 248.047L107.377 239.351L110.385 238.264L112.294 248.313L109.475 248.047Z" fill="white"/>
<path d="M147.888 276.437C147.888 276.437 145.196 286.979 132.227 290.341C119.259 293.703 104.912 284.918 104.912 284.918L107.769 310.072L123.645 349.698L164.219 339.119C164.219 339.119 161.792 293.02 147.888 276.437Z" fill="#A89060"/>
<path opacity="0.6" d="M154.941 318.237L159.69 316.738C160.216 316.572 160.508 316.011 160.342 315.486L157.513 306.517C157.347 305.991 156.786 305.699 156.26 305.865L151.511 307.364C150.985 307.53 150.693 308.09 150.859 308.616L153.688 317.585C153.854 318.111 154.415 318.403 154.941 318.237Z" fill="#4A607A"/>
<path opacity="0.2" d="M153.973 315.503L159.373 313.799L157.042 306.41L151.641 308.113L153.973 315.503Z" fill="black"/>
<path d="M153.791 303.738L152.598 304.115L153.971 308.466L155.164 308.09L153.791 303.738Z" fill="#263238"/>
<path d="M120.308 237.063C110.31 237.063 103.712 247.656 106.05 264.454C108.389 281.253 117.755 286.094 117.755 286.094L117.161 282.036C127.559 284.396 138.279 284.994 148.875 283.806C148.875 283.806 144.046 270.104 145.613 256.112C145.613 256.112 148.786 237.038 120.308 237.063Z" fill="#263238"/>
<path opacity="0.2" d="M140.166 286.928L144.249 302.096L137.069 296.623C137.069 296.623 144.059 312.6 145.917 321.903C145.917 321.903 139.875 306.065 134.667 297.381L131.621 306.078L119.373 293.602C119.373 293.602 130.193 285.31 140.166 286.928Z" fill="black"/>
<path d="M134.198 291.82L121.735 292.199C127.259 285.133 117.273 272.822 117.273 272.822L129.585 275.489C132.517 287.674 137.586 288.04 137.586 288.04L134.198 291.82Z" fill="#EBBC9B"/>
<path opacity="0.2" d="M133.023 284.236C128.267 283.838 123.844 281.635 120.661 278.08C119.678 276.254 118.544 274.512 117.273 272.872L129.585 275.552C130.237 278.619 131.399 281.554 133.023 284.236Z" fill="black"/>
<path d="M129.573 242.208C140.304 243.105 143.287 249.134 143.148 260.27C142.984 274.174 139.091 283.743 125.92 279.673C108.022 274.149 111.738 240.716 129.573 242.208Z" fill="#EBBC9B"/>
<path d="M136.259 259.12C136.986 260.796 137.911 262.379 139.015 263.835C138.661 264.249 138.201 264.559 137.684 264.731C137.167 264.902 136.613 264.929 136.082 264.808L136.259 259.12Z" fill="#986B4B"/>
<path d="M128.992 257.325L131.318 256.567C131.318 256.567 130.079 258.412 128.992 257.325Z" fill="#263238"/>
<path d="M129.801 257.06C129.369 256.847 128.874 256.799 128.409 256.925C127.944 257.05 127.54 257.341 127.273 257.742C127.67 257.561 128.101 257.468 128.537 257.468C128.974 257.468 129.405 257.561 129.801 257.742V257.06Z" fill="#263238"/>
<path d="M125.477 251.94C125.357 251.937 125.244 251.887 125.161 251.801C125.117 251.76 125.082 251.71 125.058 251.655C125.034 251.599 125.021 251.54 125.021 251.479C125.021 251.419 125.034 251.359 125.058 251.304C125.082 251.248 125.117 251.198 125.161 251.157C125.866 250.54 126.704 250.096 127.61 249.859C128.516 249.622 129.465 249.599 130.381 249.792C130.5 249.817 130.604 249.888 130.671 249.99C130.737 250.092 130.76 250.216 130.735 250.335C130.71 250.454 130.639 250.558 130.537 250.625C130.435 250.691 130.311 250.714 130.192 250.689C129.427 250.533 128.637 250.551 127.88 250.741C127.123 250.931 126.418 251.289 125.818 251.789C125.776 251.837 125.723 251.876 125.664 251.902C125.605 251.929 125.541 251.942 125.477 251.94Z" fill="#263238"/>
<path d="M142.315 252.13C142.214 252.134 142.116 252.103 142.037 252.042C141.531 251.578 140.928 251.233 140.272 251.032C139.616 250.831 138.923 250.778 138.245 250.879C138.186 250.894 138.126 250.899 138.066 250.891C138.006 250.883 137.949 250.864 137.897 250.834C137.844 250.804 137.798 250.764 137.762 250.717C137.725 250.669 137.698 250.614 137.682 250.556C137.666 250.498 137.662 250.438 137.67 250.378C137.677 250.318 137.697 250.261 137.727 250.208C137.757 250.156 137.797 250.11 137.844 250.074C137.892 250.037 137.946 250.01 138.004 249.994C138.824 249.849 139.665 249.893 140.465 250.123C141.264 250.353 142.001 250.763 142.618 251.321C142.712 251.398 142.772 251.508 142.786 251.628C142.8 251.748 142.767 251.869 142.694 251.966C142.648 252.021 142.59 252.065 142.524 252.093C142.458 252.122 142.386 252.135 142.315 252.13Z" fill="#263238"/>
<path d="M116.289 259.322C116.289 259.322 122.04 250.929 121.851 244.053C121.851 244.053 143.857 237.126 143.111 258.817C143.111 258.817 146.777 239.857 128.36 237.847C109.944 235.837 107.808 262.912 116.668 271.76C116.668 271.76 112.763 264.58 116.289 259.322Z" fill="#263238"/>
<path d="M117.893 261.736C117.893 260.485 117.397 259.284 116.513 258.398C115.629 257.512 114.43 257.012 113.178 257.009C109.816 257.098 107.667 263.797 115.808 266.135C116.97 266.464 117.741 265.364 117.893 261.736Z" fill="#EBBC9B"/>
<path d="M136.171 267.968C135.384 269.025 134.678 270.141 134.06 271.305C133.845 271.229 133.618 271.166 133.403 271.077C130.432 270.028 129.396 268.549 129.156 267.285C129.042 266.643 129.09 265.983 129.295 265.364C129.4 265.008 129.553 264.668 129.75 264.353C131.294 265.821 133.14 266.934 135.16 267.614C135.766 267.842 136.171 267.968 136.171 267.968Z" fill="#263238"/>
<path d="M135.16 267.589L134.515 268.562C131.709 267.563 129.876 266.489 129.295 265.339C129.4 264.983 129.553 264.643 129.75 264.328C131.294 265.795 133.141 266.908 135.16 267.589Z" fill="white"/>
<path d="M133.403 271.077C130.433 270.028 129.396 268.549 129.156 267.285C130.28 267.699 131.32 268.312 132.228 269.093C132.816 269.616 133.227 270.31 133.403 271.077Z" fill="#DE5753"/>
<path d="M129.282 243.004C129.282 243.004 123.48 260.308 112.383 259.12C101.285 257.932 120.308 237.025 120.308 237.025C120.308 237.025 139.028 231.679 147.18 242.081C155.333 252.484 143.148 258.791 143.148 258.791C143.148 258.791 144.968 245.216 129.282 243.004Z" fill="#263238"/>
<path d="M120.434 257.73C120.37 257.727 120.308 257.706 120.254 257.671C120.201 257.635 120.158 257.585 120.131 257.527C120.102 257.447 120.105 257.358 120.141 257.28C120.176 257.202 120.241 257.141 120.32 257.11C129.168 253.735 128.966 241.866 128.966 241.74C128.962 241.699 128.968 241.657 128.981 241.618C128.995 241.579 129.017 241.543 129.046 241.513C129.075 241.483 129.109 241.46 129.148 241.444C129.187 241.429 129.228 241.422 129.269 241.424C129.351 241.427 129.43 241.459 129.49 241.514C129.551 241.57 129.589 241.646 129.598 241.727C129.598 241.854 129.8 254.165 120.548 257.704L120.434 257.73Z" fill="#263238"/>
<path d="M139.887 258.374L142.212 257.628C142.212 257.628 140.961 259.461 139.887 258.374Z" fill="#263238"/>
<path d="M140.696 258.109C140.263 257.895 139.766 257.847 139.3 257.975C138.834 258.104 138.431 258.398 138.168 258.804C138.559 258.609 138.987 258.502 139.424 258.489C139.86 258.476 140.294 258.557 140.696 258.728V258.109Z" fill="#263238"/>
<path d="M123.492 287.092L132.884 291.87L132.732 301.388L119.309 293.564L123.492 287.092Z" fill="#4A607A"/>
<path d="M134.312 285.297L134.869 291.074L140.999 297.558L140.165 286.89L134.312 285.297Z" fill="#4A607A"/>
<path d="M90.92 219.936L87.0016 209.824C87.0731 209.283 87.0179 208.734 86.8402 208.218C86.6625 207.702 86.3672 207.235 85.9778 206.854C83.2475 204.819 77.6101 202.973 76.1944 203.188C74.1341 203.491 69.8744 207.22 70.241 209.66C70.6075 212.099 82.6408 213.603 82.6408 213.603L86.6351 224.689L90.92 219.936Z" fill="#EBBC9B"/>
<path d="M107.793 310.072C107.793 310.072 115.377 304.043 112.356 290.72L104.204 253.862L90.1985 215.79L83.3477 219.253C83.3477 219.253 94.85 256.453 95.9118 258.968C96.4553 260.232 98.6168 279.534 101.562 292.464C104.267 304.371 107.793 310.072 107.793 310.072Z" fill="#A89060"/>
<path d="M82.1484 218.166L90.1496 214.159L91.8939 216.827L82.5403 220.972L82.1484 218.166Z" fill="#4A607A"/>
<path opacity="0.7" d="M82.1484 218.166L90.1496 214.159L91.8939 216.827L82.5403 220.972L82.1484 218.166Z" fill="white"/>
<path opacity="0.6" d="M123.492 287.092L132.884 291.87L132.732 301.388L119.309 293.564L123.492 287.092Z" fill="#A89060"/>
<path opacity="0.6" d="M134.312 285.297L134.869 291.074L140.999 297.558L140.165 286.89L134.312 285.297Z" fill="#A89060"/>
<path d="M401.018 267.222H363.148V296.648H401.018V267.222Z" fill="white"/>
<path opacity="0.1" d="M401.018 267.222H391.311V296.648H401.018V267.222Z" fill="black"/>
<path d="M360.975 322.636H403.786V269.232H389.996L360.975 283.123V322.636Z" fill="#4A607A"/>
<path d="M403.786 269.232H389.996V322.636H403.786V269.232Z" fill="#939CA6"/>
<path opacity="0.7" d="M385.432 293.652H365.385V303.259H385.432V293.652Z" fill="white"/>
<path opacity="0.7" d="M385.432 306.469H365.385V307.847H385.432V306.469Z" fill="white"/>
<path opacity="0.7" d="M402.446 310.502H391.311V318.654H402.446V310.502Z" fill="white"/>
<path d="M384.926 265.617H347.057V296.648H384.926V265.617Z" fill="white"/>
<path opacity="0.1" d="M384.926 265.617H375.219V296.648H384.926V265.617Z" fill="black"/>
<path d="M344.883 322.636H387.695V269.232H373.904L344.883 283.123V322.636Z" fill="#4A607A"/>
<path d="M387.695 269.232H373.904V322.636H387.695V269.232Z" fill="#939CA6"/>
<path opacity="0.7" d="M369.342 293.652H349.295V303.259H369.342V293.652Z" fill="white"/>
<path opacity="0.7" d="M369.342 306.469H349.295V307.847H369.342V306.469Z" fill="white"/>
<path opacity="0.7" d="M386.355 310.502H375.219V318.654H386.355V310.502Z" fill="white"/>
<path d="M318.289 525.394H326.037L339.941 331.686H329.665L318.289 525.394Z" fill="#263238"/>
<path opacity="0.1" d="M318.289 525.394H326.037L339.259 341.305L339.941 332.002H329.665L329.122 341.305L318.289 525.394Z" fill="white"/>
<path opacity="0.2" d="M329.121 340.85H339.258L339.941 332.002H329.665L329.121 340.85Z" fill="black"/>
<path d="M261.459 525.394H269.208L270.472 331.686H260.195L261.459 525.394Z" fill="#263238"/>
<path opacity="0.1" d="M260.182 332.002L260.397 363.248L261.446 525.394H269.194L270.256 363.248L270.458 332.002H260.182Z" fill="white"/>
<path opacity="0.2" d="M260.182 332.002L260.397 363.602H270.256L270.458 332.002H260.182Z" fill="black"/>
<path d="M179.248 525.394H186.996L200.9 331.686H190.624L179.248 525.394Z" fill="#263238"/>
<path opacity="0.1" d="M179.248 525.394H186.996L200.23 341.305L200.9 332.002H190.624L190.081 341.305L179.248 525.394Z" fill="white"/>
<path opacity="0.2" d="M190.082 340.85H200.232L200.902 332.002H190.626L190.082 340.85Z" fill="black"/>
<path d="M406.87 525.394H414.618L403.229 331.686H392.953L406.87 525.394Z" fill="#263238"/>
<path opacity="0.1" d="M392.953 332.002L393.648 341.305L406.87 525.394H414.605L403.786 341.305L403.229 332.002H392.953Z" fill="white"/>
<path opacity="0.2" d="M403.229 332.002H392.953L393.648 340.85H403.786L403.229 332.002Z" fill="black"/>
<path d="M408.653 336.54H185.228C184.869 336.54 184.514 336.469 184.183 336.332C183.852 336.195 183.551 335.994 183.297 335.74C183.044 335.487 182.843 335.186 182.706 334.855C182.568 334.523 182.498 334.168 182.498 333.81V326.845H411.383V333.81C411.383 334.168 411.312 334.523 411.175 334.855C411.038 335.186 410.837 335.487 410.583 335.74C410.33 335.994 410.029 336.195 409.697 336.332C409.366 336.469 409.011 336.54 408.653 336.54Z" fill="#0D1C41"/>
<path opacity="0.4" d="M408.653 336.54H185.228C184.869 336.54 184.514 336.469 184.183 336.332C183.852 336.195 183.551 335.994 183.297 335.74C183.044 335.487 182.843 335.186 182.706 334.855C182.568 334.523 182.498 334.168 182.498 333.81V326.845H411.383V333.81C411.383 334.168 411.312 334.523 411.175 334.855C411.038 335.186 410.837 335.487 410.583 335.74C410.33 335.994 410.029 336.195 409.697 336.332C409.366 336.469 409.011 336.54 408.653 336.54Z" fill="white"/>
<path opacity="0.2" d="M182.498 331.686H411.383V326.832H182.498V331.686Z" fill="black"/>
<path d="M177.694 328.096H416.173C416.532 328.098 416.888 328.029 417.22 327.892C417.552 327.755 417.853 327.554 418.107 327.301C418.361 327.047 418.562 326.745 418.699 326.413C418.835 326.081 418.905 325.725 418.903 325.366C418.903 324.642 418.616 323.948 418.104 323.436C417.592 322.924 416.897 322.636 416.173 322.636H177.694C176.969 322.636 176.273 322.923 175.759 323.435C175.245 323.947 174.955 324.641 174.951 325.366C174.951 325.726 175.022 326.082 175.16 326.414C175.298 326.746 175.5 327.048 175.755 327.301C176.01 327.555 176.313 327.756 176.645 327.892C176.978 328.029 177.334 328.098 177.694 328.096Z" fill="#0D1C41"/>
<path opacity="0.4" d="M177.694 328.096H416.173C416.532 328.098 416.888 328.029 417.22 327.892C417.552 327.755 417.853 327.554 418.107 327.301C418.361 327.047 418.562 326.745 418.699 326.413C418.835 326.081 418.905 325.725 418.903 325.366C418.903 324.642 418.616 323.948 418.104 323.436C417.592 322.924 416.897 322.636 416.173 322.636H177.694C176.969 322.636 176.273 322.923 175.759 323.435C175.245 323.947 174.955 324.641 174.951 325.366C174.951 325.726 175.022 326.082 175.16 326.414C175.298 326.746 175.5 327.048 175.755 327.301C176.01 327.555 176.313 327.756 176.645 327.892C176.978 328.029 177.334 328.098 177.694 328.096Z" fill="white"/>
<path d="M364.93 322.611V318.338H367.8L364.93 316.67H367.079L364.21 314.799H361.492V312.65H364.652L361.492 311.399V306.735H364.652V303.689H367.8L364.652 302.627V300.453H366.902L365.057 298.62L363.464 297.015H314.623V299.201H311.4L314.99 300.819V302.627H308.404V305.989H305.484L308.404 307.455V311.209H310.477V313.004H314.623V318.338H312.297L314.206 320.247V322.636L364.93 322.611Z" fill="white"/>
<path opacity="0.7" d="M364.93 322.611V318.338H367.8L364.93 316.67H367.079L364.21 314.799H361.492V312.65H364.652L361.492 311.399V306.735H364.652V303.689H367.8L364.652 302.627V300.453H366.902L365.057 298.62L363.464 297.015H314.623V299.201H311.4L314.99 300.819V302.627H308.404V305.989H305.484L308.404 307.455V311.209H310.477V313.004H314.623V318.338H312.297L314.206 320.247V322.636L364.93 322.611Z" fill="white"/>
<path opacity="0.1" d="M364.93 322.611V318.338H367.799L364.93 316.67H367.079L364.209 314.799H361.492V312.65H364.652L361.492 311.399V306.735H364.652V303.689H367.799L364.652 302.627V300.453H366.902L365.056 298.62L363.464 297.015H337.741V299.201H334.518L338.095 300.819V302.627H331.51V305.989H328.59L331.51 307.455V311.209H333.583V313.004H337.741V318.338H335.415L337.311 320.247V322.636L364.93 322.611Z" fill="black"/>
<path opacity="0.1" d="M314.99 302.627H338.096L314.99 301.793V302.627Z" fill="black"/>
<path opacity="0.1" d="M314.623 313.004H337.742L337.843 314.622L314.623 313.004Z" fill="black"/>
<path opacity="0.1" d="M310.477 311.209H333.582L310.477 312.018V311.209Z" fill="black"/>
<path opacity="0.1" d="M314.623 318.338H337.742L314.623 317.491V318.338Z" fill="black"/>
<path opacity="0.1" d="M314.205 320.247H337.311V321.132L314.205 320.247Z" fill="black"/>
<path opacity="0.1" d="M308.404 305.989H331.51L308.404 305.256V305.989Z" fill="black"/>
<path opacity="0.1" d="M314.623 299.201H337.742L314.623 298.392V299.201Z" fill="black"/>
<path opacity="0.1" d="M364.652 300.453H341.205L364.652 301.173V300.453Z" fill="black"/>
<path opacity="0.1" d="M338.096 302.627H364.652L340.573 303.411L338.096 302.627Z" fill="black"/>
<path opacity="0.1" d="M331.51 305.989L364.652 306.735V305.989H331.51Z" fill="black"/>
<path opacity="0.1" d="M331.51 307.455H347.904L331.51 308.252V307.455Z" fill="black"/>
<path opacity="0.1" d="M361.493 311.399L337.742 311.209L361.493 310.679V311.399Z" fill="black"/>
<path opacity="0.1" d="M361.493 312.65H337.312L361.493 313.459V312.65Z" fill="black"/>
<path opacity="0.1" d="M364.93 316.67H338.096V317.491L364.93 316.67Z" fill="black"/>
<path opacity="0.1" d="M364.931 318.338H345.49L364.931 318.882V318.338Z" fill="black"/>
<path d="M302.741 317.1V321.157C302.741 322.194 301.477 322.623 300.478 322.623H219.43C218.394 322.623 217.143 322.194 217.143 321.157V317.1H302.741Z" fill="#263238"/>
<path opacity="0.4" d="M302.741 317.1V321.157C302.741 322.194 301.477 322.623 300.478 322.623H219.43C218.394 322.623 217.143 322.194 217.143 321.157V317.1H302.741Z" fill="white"/>
<path opacity="0.2" d="M302.742 317.1V321.157C302.742 322.194 301.478 322.623 300.48 322.623H247.025C245.989 322.623 244.75 322.194 244.75 321.157V317.1H302.742Z" fill="black"/>
<path d="M316.305 274.983L306.648 318.756C306.482 319.466 306.083 320.101 305.515 320.559C304.947 321.017 304.243 321.272 303.513 321.284H250.817C250.489 321.276 250.168 321.193 249.877 321.041C249.587 320.889 249.336 320.671 249.143 320.405C248.951 320.14 248.823 319.833 248.769 319.509C248.715 319.186 248.737 318.854 248.833 318.541L258.464 275.11C258.662 274.447 259.081 273.872 259.652 273.481C260.222 273.089 260.91 272.906 261.599 272.961H314.308C315.724 272.91 316.608 273.555 316.305 274.983Z" fill="#263238"/>
<path opacity="0.4" d="M316.304 274.983L306.647 318.755C306.481 319.466 306.082 320.1 305.514 320.558C304.946 321.016 304.242 321.272 303.512 321.283H252.598C252.271 321.276 251.949 321.193 251.658 321.041C251.368 320.889 251.117 320.671 250.925 320.405C250.732 320.14 250.604 319.833 250.55 319.509C250.496 319.186 250.518 318.854 250.614 318.541L260.258 275.11C260.454 274.445 260.872 273.869 261.443 273.477C262.014 273.086 262.703 272.903 263.393 272.961H314.307C315.723 272.91 316.607 273.555 316.304 274.983Z" fill="white"/>
<path opacity="0.2" d="M290.317 297.23C290.317 301.022 286.298 304.017 283.352 304.017C280.407 304.017 278.663 300.971 279.56 297.23C280.458 293.488 283.352 290.568 286.209 290.454C285.375 294.247 287.17 297.23 290.102 297.23H290.317Z" fill="black"/>
</g>
<defs>
<filter id="filter0_dd_82_405" x="-7" y="-7" width="646" height="646" filterUnits="userSpaceOnUse" color-interpolation-filters="sRGB">
<feFlood flood-opacity="0" result="BackgroundImageFix"/>
<feColorMatrix in="SourceAlpha" type="matrix" values="0 0 0 0 0 0 0 0 0 0 0 0 0 0 0 0 0 0 127 0" result="hardAlpha"/>
<feOffset dx="-2" dy="-2"/>
<feGaussianBlur stdDeviation="2.5"/>
<feColorMatrix type="matrix" values="0 0 0 0 0.0791667 0 0 0 0 0.114 0 0 0 0 0.2375 0 0 0 0.15 0"/>
<feBlend mode="normal" in2="BackgroundImageFix" result="effect1_dropShadow_82_405"/>
<feColorMatrix in="SourceAlpha" type="matrix" values="0 0 0 0 0 0 0 0 0 0 0 0 0 0 0 0 0 0 127 0" result="hardAlpha"/>
<feOffset dx="2" dy="2"/>
<feGaussianBlur stdDeviation="2.5"/>
<feColorMatrix type="matrix" values="0 0 0 0 0.0784314 0 0 0 0 0.113725 0 0 0 0 0.239216 0 0 0 0.15 0"/>
<feBlend mode="normal" in2="effect1_dropShadow_82_405" result="effect2_dropShadow_82_405"/>
<feBlend mode="normal" in="SourceGraphic" in2="effect2_dropShadow_82_405" result="shape"/>
</filter>
</defs>
</svg>
