<svg width="46" height="43" viewBox="0 0 46 43" fill="none" xmlns="http://www.w3.org/2000/svg">
<path d="M45.5525 17.805C45.316 16.3856 44.0148 15.4393 42.2405 15.4393C41.6491 15.4393 41.176 15.4393 40.5845 15.4393C39.52 15.321 39.2834 15.6759 39.2834 16.5039C39.2834 20.6439 39.2834 24.6656 39.2834 28.8056C39.2834 30.9348 37.1542 33.1822 34.6702 33.6554C26.8633 35.4297 19.0564 37.0857 11.2495 38.86C10.4215 39.0966 9.47523 39.0965 8.52893 39.0965C8.17408 39.0965 7.58265 38.86 7.46437 38.5051C7.34608 38.2685 7.70093 37.7954 7.9375 37.5588C8.29236 37.3223 8.76551 37.0857 9.23866 36.8491C10.6581 36.376 12.1958 35.9028 13.6152 35.4297C19.4113 33.5371 25.2073 31.6445 31.0033 29.6336C33.6056 28.8056 35.0251 27.0314 35.0251 24.7839C35.1433 17.6867 35.0251 10.4713 35.0251 3.37409C35.0251 2.19123 34.4336 1.24494 33.1325 0.771794C31.5947 0.180363 30.1753 0.653501 28.8742 1.24493C20.5941 5.14838 12.4324 9.05184 4.15233 12.9553C1.7866 14.1381 0.367188 15.7941 0.367188 18.1599C0.367188 24.9022 0.367188 31.6445 0.367188 38.3868C0.367188 38.7417 0.367159 39.0966 0.485445 39.3331C1.31345 41.5806 3.44263 43 6.2815 43C12.0775 43 17.8735 43 23.6696 43C29.4656 43 35.1433 43 40.9394 43C42.2405 43 43.3051 42.7634 44.2514 41.9354C45.4342 40.9891 45.4342 39.688 45.4342 38.5051C45.4342 32.6857 45.5525 17.805 45.5525 17.805ZM21.4221 15.6759C22.0136 14.1382 23.3147 13.1919 25.2073 12.9553C26.5085 12.837 27.573 13.5467 27.8096 14.7296C28.0462 16.5039 25.917 18.633 23.6696 18.633C21.8953 18.633 20.8307 17.3319 21.4221 15.6759Z" fill="#E47418"/>
</svg>
