<svg width="264" height="72" viewBox="0 0 264 72" fill="none" xmlns="http://www.w3.org/2000/svg">
<path d="M103.875 46H112.811C117.271 46 119.994 43.7407 119.994 40.0767V40.0477C119.994 37.3395 118.053 35.312 115.244 35.0513V34.7906C117.344 34.4575 118.966 32.5169 118.966 30.33V30.3011C118.966 27.1004 116.576 25.1019 112.608 25.1019H103.875V46ZM111.695 28.0128C113.955 28.0128 115.273 29.099 115.273 30.9528V30.9817C115.273 32.8789 113.868 33.9072 111.218 33.9072H107.611V28.0128H111.695ZM111.811 36.5575C114.664 36.5575 116.171 37.6726 116.171 39.787V39.816C116.171 41.9449 114.708 43.089 111.956 43.089H107.611V36.5575H111.811ZM130.185 46.3186C134.486 46.3186 136.6 43.8421 137.107 41.8001L137.151 41.6698H133.718L133.675 41.7711C133.327 42.4953 132.212 43.4801 130.257 43.4801C127.81 43.4801 126.274 41.8291 126.231 38.9905H137.296V37.8029C137.296 33.0238 134.515 29.8666 130.011 29.8666C125.507 29.8666 122.625 33.1251 122.625 38.1071V38.1216C122.625 43.1614 125.478 46.3186 130.185 46.3186ZM130.054 32.6907C132.067 32.6907 133.53 33.9796 133.776 36.5719H126.26C126.535 34.052 128.041 32.6907 130.054 32.6907ZM146.603 46.3186C150.499 46.3186 153.323 44.3056 153.323 41.2932V41.2642C153.323 38.9615 151.86 37.6436 148.761 36.9485L146.197 36.3837C144.488 35.9926 143.822 35.4278 143.822 34.501V34.4865C143.822 33.2989 144.981 32.5169 146.588 32.5169C148.283 32.5169 149.326 33.3279 149.586 34.3272L149.601 34.3706H152.99V34.3417C152.758 31.7783 150.455 29.8666 146.603 29.8666C142.866 29.8666 140.26 31.8362 140.26 34.6892V34.7037C140.26 37.0354 141.693 38.4547 144.706 39.1208L147.269 39.7001C149.007 40.0912 149.702 40.6994 149.702 41.6263V41.6553C149.702 42.8428 148.457 43.6538 146.661 43.6538C144.865 43.6538 143.808 42.8863 143.431 41.7856L143.417 41.7567H139.84V41.7856C140.144 44.4649 142.577 46.3186 146.603 46.3186ZM162.789 46.0724C163.485 46.0724 164.151 46.0145 164.672 45.9131V43.1325C164.238 43.1759 163.963 43.1904 163.456 43.1904C161.949 43.1904 161.327 42.5242 161.327 40.9456V32.9658H164.672V30.1707H161.327V26.2894H157.663V30.1707H155.201V32.9658H157.663V41.8001C157.663 44.8559 159.154 46.0724 162.789 46.0724ZM168.36 46H176.195C182.452 46 186.029 42.1622 186.029 35.4713V35.4423C186.029 28.8963 182.408 25.1019 176.195 25.1019H168.36V46ZM172.097 42.8573V28.2446H175.703C179.801 28.2446 182.22 30.9093 182.22 35.5002V35.5292C182.22 40.2215 179.859 42.8573 175.703 42.8573H172.097ZM196.495 46.3186C201.231 46.3186 204.113 43.2194 204.113 38.0926V38.0636C204.113 32.9658 201.216 29.8666 196.495 29.8666C191.788 29.8666 188.877 32.9803 188.877 38.0636V38.0926C188.877 43.2194 191.745 46.3186 196.495 46.3186ZM196.495 43.3932C193.989 43.3932 192.556 41.438 192.556 38.1071V38.0781C192.556 34.7472 193.989 32.7775 196.495 32.7775C198.986 32.7775 200.42 34.7472 200.42 38.0781V38.1071C200.42 41.438 199 43.3932 196.495 43.3932ZM214.245 46.3186C218.257 46.3186 220.589 44.1607 221.11 40.9167L221.139 40.8008L217.736 40.8153L217.707 40.8732C217.258 42.5387 216.114 43.3932 214.245 43.3932C211.798 43.3932 210.335 41.4236 210.335 38.0636V38.0347C210.335 34.7182 211.783 32.7775 214.245 32.7775C216.215 32.7775 217.388 33.8782 217.721 35.4133L217.736 35.4568H221.139V35.3989C220.734 32.1258 218.301 29.8666 214.231 29.8666C209.466 29.8666 206.671 32.9224 206.671 38.0347V38.0636C206.671 43.2339 209.481 46.3186 214.245 46.3186ZM230.722 46.0724C231.417 46.0724 232.083 46.0145 232.604 45.9131V43.1325C232.17 43.1759 231.895 43.1904 231.388 43.1904C229.882 43.1904 229.259 42.5242 229.259 40.9456V32.9658H232.604V30.1707H229.259V26.2894H225.595V30.1707H223.133V32.9658H225.595V41.8001C225.595 44.8559 227.087 46.0724 230.722 46.0724ZM242.607 46.3186C247.343 46.3186 250.225 43.2194 250.225 38.0926V38.0636C250.225 32.9658 247.328 29.8666 242.607 29.8666C237.9 29.8666 234.989 32.9803 234.989 38.0636V38.0926C234.989 43.2194 237.857 46.3186 242.607 46.3186ZM242.607 43.3932C240.101 43.3932 238.668 41.438 238.668 38.1071V38.0781C238.668 34.7472 240.101 32.7775 242.607 32.7775C245.098 32.7775 246.532 34.7472 246.532 38.0781V38.1071C246.532 41.438 245.112 43.3932 242.607 43.3932ZM253.565 46H257.171V36.8037C257.171 34.5444 258.75 33.1106 261.154 33.1106C261.777 33.1106 262.371 33.1975 262.95 33.3134V30.0838C262.602 29.9824 262.037 29.91 261.487 29.91C259.402 29.91 257.953 30.9093 257.418 32.6038H257.171V30.1707H253.565V46Z" fill="black"/>
<rect x="0.75" y="0.75" width="72.5" height="70.5" rx="15.25" fill="white"/>
<path d="M54.3448 19.553L37.5095 36.5095M37.5095 36.5095L20.6742 53.4661M37.5095 36.5095L54.4661 53.3448M37.5095 36.5095L20.5529 19.6742M37.5 13V36.5M37.5 36.5L37.5 60M37.5 36.5L61 36.5M37.5 36.5H14" stroke="#EA7571" stroke-width="5"/>
<rect x="0.75" y="0.75" width="72.5" height="70.5" rx="15.25" stroke="#EBEBEB" stroke-width="1.5"/>
</svg>
